<?xml version="1.0" encoding="utf-8" standalone="no"?>
<!DOCTYPE svg PUBLIC "-//W3C//DTD SVG 1.1//EN"
  "http://www.w3.org/Graphics/SVG/1.1/DTD/svg11.dtd">
<svg xmlns:xlink="http://www.w3.org/1999/xlink" width="260.75pt" height="145.090156pt" viewBox="0 0 260.75 145.090156" xmlns="http://www.w3.org/2000/svg" version="1.1">
 <metadata>
  <rdf:RDF xmlns:dc="http://purl.org/dc/elements/1.1/" xmlns:cc="http://creativecommons.org/ns#" xmlns:rdf="http://www.w3.org/1999/02/22-rdf-syntax-ns#">
   <cc:Work>
    <dc:type rdf:resource="http://purl.org/dc/dcmitype/StillImage"/>
    <dc:date>1980-01-01T00:00:00+00:00</dc:date>
    <dc:format>image/svg+xml</dc:format>
    <dc:creator>
     <cc:Agent>
      <dc:title>Matplotlib v3.10.3, https://matplotlib.org/</dc:title>
     </cc:Agent>
    </dc:creator>
   </cc:Work>
  </rdf:RDF>
 </metadata>
 <defs>
  <style type="text/css">*{stroke-linejoin: round; stroke-linecap: butt}</style>
 </defs>
 <g id="figure_1">
  <g id="patch_1">
   <path d="M 0 145.090156 
L 260.75 145.090156 
L 260.75 0 
L 0 0 
L 0 145.090156 
z
" style="fill: none"/>
  </g>
  <g id="axes_1">
   <g id="patch_2">
    <path d="M 25.7 121.569844 
L 248.9 121.569844 
L 248.9 10.689844 
L 25.7 10.689844 
L 25.7 121.569844 
z
" style="fill: none"/>
   </g>
   <g id="FillBetweenPolyCollection_1">
    <path d="M 25.7 121.569844 
L 25.7 110.481844 
L 27.130769 110.566809 
L 28.561538 110.651123 
L 29.992308 110.734791 
L 31.423077 110.817818 
L 32.853846 110.900208 
L 34.284615 110.981968 
L 35.715385 111.0631 
L 37.146154 111.143611 
L 38.576923 111.223505 
L 40.007692 111.302787 
L 41.438462 111.381462 
L 42.869231 111.459533 
L 44.3 111.537006 
L 45.730769 111.613886 
L 47.161538 111.690177 
L 48.592308 111.765882 
L 50.023077 111.841008 
L 51.453846 111.915558 
L 52.884615 111.989537 
L 54.315385 112.062949 
L 55.746154 112.135799 
L 57.176923 112.20809 
L 58.607692 112.279827 
L 60.038462 112.351014 
L 61.469231 112.421656 
L 62.9 112.491757 
L 64.330769 112.561321 
L 65.761538 112.630351 
L 67.192308 112.698853 
L 68.623077 112.766829 
L 70.053846 112.834285 
L 71.484615 112.901224 
L 72.915385 112.96765 
L 74.346154 113.033567 
L 75.776923 113.098978 
L 77.207692 113.163889 
L 78.638462 113.228302 
L 80.069231 113.292222 
L 81.5 113.355651 
L 81.5 121.569844 
L 81.5 121.569844 
L 80.069231 121.569844 
L 78.638462 121.569844 
L 77.207692 121.569844 
L 75.776923 121.569844 
L 74.346154 121.569844 
L 72.915385 121.569844 
L 71.484615 121.569844 
L 70.053846 121.569844 
L 68.623077 121.569844 
L 67.192308 121.569844 
L 65.761538 121.569844 
L 64.330769 121.569844 
L 62.9 121.569844 
L 61.469231 121.569844 
L 60.038462 121.569844 
L 58.607692 121.569844 
L 57.176923 121.569844 
L 55.746154 121.569844 
L 54.315385 121.569844 
L 52.884615 121.569844 
L 51.453846 121.569844 
L 50.023077 121.569844 
L 48.592308 121.569844 
L 47.161538 121.569844 
L 45.730769 121.569844 
L 44.3 121.569844 
L 42.869231 121.569844 
L 41.438462 121.569844 
L 40.007692 121.569844 
L 38.576923 121.569844 
L 37.146154 121.569844 
L 35.715385 121.569844 
L 34.284615 121.569844 
L 32.853846 121.569844 
L 31.423077 121.569844 
L 29.992308 121.569844 
L 28.561538 121.569844 
L 27.130769 121.569844 
L 25.7 121.569844 
z
" clip-path="url(#p5d43cb8957)" style="fill: #1f77b4; fill-opacity: 0.1"/>
   </g>
   <g id="FillBetweenPolyCollection_2">
    <path d="M 25.7 121.569844 
L 25.7 10.689844 
L 27.130769 18.899279 
L 28.561538 26.500897 
L 29.992308 33.539699 
L 31.423077 40.057356 
L 32.853846 46.092453 
L 34.284615 51.680718 
L 35.715385 56.855233 
L 37.146154 61.646633 
L 38.576923 66.083283 
L 40.007692 70.191448 
L 41.438462 73.995449 
L 42.869231 77.517806 
L 44.3 80.779371 
L 45.730769 83.799454 
L 47.161538 86.595933 
L 48.592308 89.185363 
L 50.023077 91.583075 
L 51.453846 93.803263 
L 52.884615 95.859071 
L 54.315385 97.762669 
L 55.746154 99.525327 
L 57.176923 101.157479 
L 58.607692 102.668788 
L 60.038462 104.068202 
L 61.469231 105.364005 
L 62.9 106.563868 
L 64.330769 107.674894 
L 65.761538 108.703661 
L 67.192308 109.656259 
L 68.623077 110.538328 
L 70.053846 111.35509 
L 71.484615 112.111379 
L 72.915385 112.811674 
L 74.346154 113.460119 
L 75.776923 114.060554 
L 77.207692 114.616534 
L 78.638462 115.13135 
L 80.069231 115.608049 
L 81.5 116.049454 
L 81.5 121.569844 
L 81.5 121.569844 
L 80.069231 121.569844 
L 78.638462 121.569844 
L 77.207692 121.569844 
L 75.776923 121.569844 
L 74.346154 121.569844 
L 72.915385 121.569844 
L 71.484615 121.569844 
L 70.053846 121.569844 
L 68.623077 121.569844 
L 67.192308 121.569844 
L 65.761538 121.569844 
L 64.330769 121.569844 
L 62.9 121.569844 
L 61.469231 121.569844 
L 60.038462 121.569844 
L 58.607692 121.569844 
L 57.176923 121.569844 
L 55.746154 121.569844 
L 54.315385 121.569844 
L 52.884615 121.569844 
L 51.453846 121.569844 
L 50.023077 121.569844 
L 48.592308 121.569844 
L 47.161538 121.569844 
L 45.730769 121.569844 
L 44.3 121.569844 
L 42.869231 121.569844 
L 41.438462 121.569844 
L 40.007692 121.569844 
L 38.576923 121.569844 
L 37.146154 121.569844 
L 35.715385 121.569844 
L 34.284615 121.569844 
L 32.853846 121.569844 
L 31.423077 121.569844 
L 29.992308 121.569844 
L 28.561538 121.569844 
L 27.130769 121.569844 
L 25.7 121.569844 
z
" clip-path="url(#p5d43cb8957)" style="fill: #ff7f0e; fill-opacity: 0.1"/>
   </g>
   <g id="matplotlib.axis_1">
    <g id="xtick_1">
     <g id="line2d_1">
      <defs>
       <path id="m9c7e779158" d="M 0 0 
L 0 3.5 
" style="stroke: #000000; stroke-width: 0.8"/>
      </defs>
      <g>
       <use xlink:href="#m9c7e779158" x="25.7" y="121.569844" style="stroke: #000000; stroke-width: 0.8"/>
      </g>
     </g>
     <g id="text_1">
      <!-- 0 -->
      <g transform="translate(23.375 135.549531) scale(0.1 -0.1)">
       <defs>
        <path id="LibertinusSerif-Regular-30" d="M 1459 -64 
C 1952 -64 2701 435 2701 1939 
C 2701 2573 2547 3117 2266 3488 
C 2099 3712 1830 3904 1485 3904 
C 851 3904 250 3149 250 1882 
C 250 1197 461 557 813 205 
C 992 26 1210 -64 1459 -64 
z
M 1485 3680 
C 1594 3680 1696 3642 1773 3571 
C 1971 3405 2144 2918 2144 2061 
C 2144 1472 2125 1069 2035 742 
C 1894 218 1581 160 1466 160 
C 870 160 806 1254 806 1811 
C 806 3386 1197 3680 1485 3680 
z
" transform="scale(0.015625)"/>
       </defs>
       <use xlink:href="#LibertinusSerif-Regular-30"/>
      </g>
     </g>
    </g>
    <g id="xtick_2">
     <g id="line2d_2">
      <g>
       <use xlink:href="#m9c7e779158" x="62.9" y="121.569844" style="stroke: #000000; stroke-width: 0.8"/>
      </g>
     </g>
     <g id="text_2">
      <!-- 2 -->
      <g transform="translate(60.575 135.549531) scale(0.1 -0.1)">
       <defs>
        <path id="LibertinusSerif-Regular-32" d="M 390 2995 
C 390 2861 512 2746 646 2746 
C 755 2746 947 2861 947 3002 
C 947 3053 934 3091 922 3136 
C 909 3181 870 3238 870 3290 
C 870 3450 1037 3680 1504 3680 
C 1734 3680 2061 3520 2061 2906 
C 2061 2496 1914 2163 1536 1779 
L 1062 1312 
C 435 672 333 365 333 -13 
C 333 -13 659 0 864 0 
L 1984 0 
C 2189 0 2483 -13 2483 -13 
C 2566 326 2630 806 2637 998 
C 2598 1030 2515 1043 2451 1030 
C 2342 576 2234 416 2003 416 
L 864 416 
C 864 723 1306 1158 1338 1190 
L 1984 1811 
C 2349 2163 2624 2445 2624 2931 
C 2624 3622 2061 3904 1542 3904 
C 832 3904 390 3379 390 2995 
z
" transform="scale(0.015625)"/>
       </defs>
       <use xlink:href="#LibertinusSerif-Regular-32"/>
      </g>
     </g>
    </g>
    <g id="xtick_3">
     <g id="line2d_3">
      <g>
       <use xlink:href="#m9c7e779158" x="100.1" y="121.569844" style="stroke: #000000; stroke-width: 0.8"/>
      </g>
     </g>
     <g id="text_3">
      <!-- 4 -->
      <g transform="translate(97.775 135.549531) scale(0.1 -0.1)">
       <defs>
        <path id="LibertinusSerif-Regular-34" d="M 2752 1402 
L 2221 1402 
L 2221 3270 
C 2221 3590 2221 3840 2234 3891 
L 2221 3904 
L 2016 3904 
C 1971 3904 1939 3866 1914 3834 
C 1510 3341 768 2285 179 1370 
C 198 1274 237 1101 429 1101 
L 1734 1101 
L 1734 512 
C 1734 218 1491 218 1216 198 
C 1178 160 1178 26 1216 -13 
C 1421 -6 1677 0 1971 0 
C 2221 0 2464 -6 2669 -13 
C 2707 26 2707 160 2669 198 
C 2355 224 2221 211 2221 512 
L 2221 1101 
L 2662 1101 
C 2752 1101 2848 1222 2848 1299 
C 2848 1363 2822 1402 2752 1402 
z
M 1734 3245 
L 1734 1402 
L 512 1402 
C 838 1926 1293 2643 1734 3245 
z
" transform="scale(0.015625)"/>
       </defs>
       <use xlink:href="#LibertinusSerif-Regular-34"/>
      </g>
     </g>
    </g>
    <g id="xtick_4">
     <g id="line2d_4">
      <g>
       <use xlink:href="#m9c7e779158" x="137.3" y="121.569844" style="stroke: #000000; stroke-width: 0.8"/>
      </g>
     </g>
     <g id="text_4">
      <!-- 6 -->
      <g transform="translate(134.975 135.549531) scale(0.1 -0.1)">
       <defs>
        <path id="LibertinusSerif-Regular-36" d="M 922 2195 
C 1094 2778 1504 3424 2355 3744 
C 2355 3821 2330 3878 2278 3910 
C 1632 3718 1235 3450 877 3034 
C 480 2573 282 1990 282 1485 
C 282 186 1018 -70 1510 -70 
C 2349 -70 2694 742 2694 1293 
C 2694 1843 2400 2336 1530 2336 
C 1363 2336 1114 2285 922 2195 
z
M 864 1965 
C 1075 2106 1286 2112 1395 2112 
C 2022 2112 2163 1498 2163 1178 
C 2163 474 1894 154 1581 154 
C 1178 154 813 371 813 1466 
C 813 1613 826 1779 864 1965 
z
" transform="scale(0.015625)"/>
       </defs>
       <use xlink:href="#LibertinusSerif-Regular-36"/>
      </g>
     </g>
    </g>
    <g id="xtick_5">
     <g id="line2d_5">
      <g>
       <use xlink:href="#m9c7e779158" x="174.5" y="121.569844" style="stroke: #000000; stroke-width: 0.8"/>
      </g>
     </g>
     <g id="text_5">
      <!-- 8 -->
      <g transform="translate(172.175 135.549531) scale(0.1 -0.1)">
       <defs>
        <path id="LibertinusSerif-Regular-38" d="M 2515 3104 
C 2515 3565 2157 3904 1530 3904 
C 877 3904 454 3514 454 3021 
C 454 2662 627 2400 1018 2157 
L 1184 2054 
C 998 1958 826 1843 666 1702 
C 403 1472 294 1184 294 934 
C 294 282 755 -64 1434 -64 
C 2272 -64 2682 550 2682 1037 
C 2682 1408 2522 1734 2182 1939 
L 1728 2214 
C 2029 2362 2515 2694 2515 3104 
z
M 1446 160 
C 1158 160 723 358 723 934 
C 723 1126 806 1574 1357 1939 
L 1658 1760 
C 2054 1517 2214 1216 2214 909 
C 2214 269 1734 160 1446 160 
z
M 1498 3680 
C 1914 3680 2067 3405 2067 3110 
C 2067 2765 1728 2477 1555 2349 
L 1357 2470 
C 954 2733 909 2944 909 3142 
C 909 3437 1114 3680 1498 3680 
z
" transform="scale(0.015625)"/>
       </defs>
       <use xlink:href="#LibertinusSerif-Regular-38"/>
      </g>
     </g>
    </g>
    <g id="xtick_6">
     <g id="line2d_6">
      <g>
       <use xlink:href="#m9c7e779158" x="211.7" y="121.569844" style="stroke: #000000; stroke-width: 0.8"/>
      </g>
     </g>
     <g id="text_6">
      <!-- 10 -->
      <g transform="translate(207.05 135.549531) scale(0.1 -0.1)">
       <defs>
        <path id="LibertinusSerif-Regular-31" d="M 1843 781 
L 1843 3002 
C 1843 3386 1850 3776 1862 3859 
C 1862 3891 1850 3891 1824 3891 
C 1472 3674 1133 3514 570 3251 
C 582 3181 608 3117 666 3078 
C 960 3200 1101 3238 1222 3238 
C 1331 3238 1350 3085 1350 2867 
L 1350 781 
C 1350 250 1178 218 730 198 
C 691 160 691 26 730 -13 
C 1043 -6 1274 0 1619 0 
C 1926 0 2080 -6 2400 -13 
C 2438 26 2438 160 2400 198 
C 1952 218 1843 250 1843 781 
z
" transform="scale(0.015625)"/>
       </defs>
       <use xlink:href="#LibertinusSerif-Regular-31"/>
       <use xlink:href="#LibertinusSerif-Regular-30" transform="translate(46.499985 0)"/>
      </g>
     </g>
    </g>
    <g id="xtick_7">
     <g id="line2d_7">
      <g>
       <use xlink:href="#m9c7e779158" x="248.9" y="121.569844" style="stroke: #000000; stroke-width: 0.8"/>
      </g>
     </g>
     <g id="text_7">
      <!-- 12 -->
      <g transform="translate(244.25 135.549531) scale(0.1 -0.1)">
       <use xlink:href="#LibertinusSerif-Regular-31"/>
       <use xlink:href="#LibertinusSerif-Regular-32" transform="translate(46.499985 0)"/>
      </g>
     </g>
    </g>
   </g>
   <g id="matplotlib.axis_2">
    <g id="ytick_1">
     <g id="line2d_8">
      <defs>
       <path id="m887f1fa374" d="M 0 0 
L -3.5 0 
" style="stroke: #000000; stroke-width: 0.8"/>
      </defs>
      <g>
       <use xlink:href="#m887f1fa374" x="25.7" y="121.569844" style="stroke: #000000; stroke-width: 0.8"/>
      </g>
     </g>
     <g id="text_8">
      <!-- 0.0 -->
      <g transform="translate(7.2 125.059687) scale(0.1 -0.1)">
       <defs>
        <path id="LibertinusSerif-Regular-2e" d="M 365 275 
C 365 90 518 -64 704 -64 
C 890 -64 1043 90 1043 275 
C 1043 461 890 614 704 614 
C 518 614 365 461 365 275 
z
" transform="scale(0.015625)"/>
       </defs>
       <use xlink:href="#LibertinusSerif-Regular-30"/>
       <use xlink:href="#LibertinusSerif-Regular-2e" transform="translate(46.499985 0)"/>
       <use xlink:href="#LibertinusSerif-Regular-30" transform="translate(68.499969 0)"/>
      </g>
     </g>
    </g>
    <g id="ytick_2">
     <g id="line2d_9">
      <g>
       <use xlink:href="#m887f1fa374" x="25.7" y="99.393844" style="stroke: #000000; stroke-width: 0.8"/>
      </g>
     </g>
     <g id="text_9">
      <!-- 0.2 -->
      <g transform="translate(7.2 102.883687) scale(0.1 -0.1)">
       <use xlink:href="#LibertinusSerif-Regular-30"/>
       <use xlink:href="#LibertinusSerif-Regular-2e" transform="translate(46.499985 0)"/>
       <use xlink:href="#LibertinusSerif-Regular-32" transform="translate(68.499969 0)"/>
      </g>
     </g>
    </g>
    <g id="ytick_3">
     <g id="line2d_10">
      <g>
       <use xlink:href="#m887f1fa374" x="25.7" y="77.217844" style="stroke: #000000; stroke-width: 0.8"/>
      </g>
     </g>
     <g id="text_10">
      <!-- 0.4 -->
      <g transform="translate(7.2 80.707687) scale(0.1 -0.1)">
       <use xlink:href="#LibertinusSerif-Regular-30"/>
       <use xlink:href="#LibertinusSerif-Regular-2e" transform="translate(46.499985 0)"/>
       <use xlink:href="#LibertinusSerif-Regular-34" transform="translate(68.499969 0)"/>
      </g>
     </g>
    </g>
    <g id="ytick_4">
     <g id="line2d_11">
      <g>
       <use xlink:href="#m887f1fa374" x="25.7" y="55.041844" style="stroke: #000000; stroke-width: 0.8"/>
      </g>
     </g>
     <g id="text_11">
      <!-- 0.6 -->
      <g transform="translate(7.2 58.531687) scale(0.1 -0.1)">
       <use xlink:href="#LibertinusSerif-Regular-30"/>
       <use xlink:href="#LibertinusSerif-Regular-2e" transform="translate(46.499985 0)"/>
       <use xlink:href="#LibertinusSerif-Regular-36" transform="translate(68.499969 0)"/>
      </g>
     </g>
    </g>
    <g id="ytick_5">
     <g id="line2d_12">
      <g>
       <use xlink:href="#m887f1fa374" x="25.7" y="32.865844" style="stroke: #000000; stroke-width: 0.8"/>
      </g>
     </g>
     <g id="text_12">
      <!-- 0.8 -->
      <g transform="translate(7.2 36.355687) scale(0.1 -0.1)">
       <use xlink:href="#LibertinusSerif-Regular-30"/>
       <use xlink:href="#LibertinusSerif-Regular-2e" transform="translate(46.499985 0)"/>
       <use xlink:href="#LibertinusSerif-Regular-38" transform="translate(68.499969 0)"/>
      </g>
     </g>
    </g>
    <g id="ytick_6">
     <g id="line2d_13">
      <g>
       <use xlink:href="#m887f1fa374" x="25.7" y="10.689844" style="stroke: #000000; stroke-width: 0.8"/>
      </g>
     </g>
     <g id="text_13">
      <!-- 1.0 -->
      <g transform="translate(7.2 14.179687) scale(0.1 -0.1)">
       <use xlink:href="#LibertinusSerif-Regular-31"/>
       <use xlink:href="#LibertinusSerif-Regular-2e" transform="translate(46.499985 0)"/>
       <use xlink:href="#LibertinusSerif-Regular-30" transform="translate(68.499969 0)"/>
      </g>
     </g>
    </g>
   </g>
   <g id="LineCollection_1">
    <path d="M 81.5 121.569844 
L 81.5 113.355651 
" clip-path="url(#p5d43cb8957)" style="fill: none; stroke: #000000; stroke-width: 1.5"/>
   </g>
   <g id="line2d_14">
    <path d="M 25.7 110.481844 
L 27.954545 110.615432 
L 30.209091 110.747412 
L 32.463636 110.877801 
L 34.718182 111.006619 
L 36.972727 111.133885 
L 39.227273 111.259618 
L 41.481818 111.383836 
L 43.736364 111.506558 
L 45.990909 111.627801 
L 48.245455 111.747583 
L 50.5 111.865922 
L 52.754545 111.982835 
L 55.009091 112.09834 
L 57.263636 112.212453 
L 59.518182 112.325191 
L 61.772727 112.436571 
L 64.027273 112.546609 
L 66.281818 112.655322 
L 68.536364 112.762724 
L 70.790909 112.868833 
L 73.045455 112.973663 
L 75.3 113.07723 
L 77.554545 113.17955 
L 79.809091 113.280636 
L 82.063636 113.380505 
L 84.318182 113.479171 
L 86.572727 113.576647 
L 88.827273 113.67295 
L 91.081818 113.768092 
L 93.336364 113.862088 
L 95.590909 113.954951 
L 97.845455 114.046696 
L 100.1 114.137335 
L 102.354545 114.226882 
L 104.609091 114.315351 
L 106.863636 114.402753 
L 109.118182 114.489103 
L 111.372727 114.574412 
L 113.627273 114.658693 
L 115.881818 114.741959 
L 118.136364 114.824221 
L 120.390909 114.905493 
L 122.645455 114.985785 
L 124.9 115.06511 
L 127.154545 115.14348 
L 129.409091 115.220905 
L 131.663636 115.297397 
L 133.918182 115.372968 
L 136.172727 115.447628 
L 138.427273 115.521389 
L 140.681818 115.594261 
L 142.936364 115.666255 
L 145.190909 115.737382 
L 147.445455 115.807652 
L 149.7 115.877075 
L 151.954545 115.945661 
L 154.209091 116.013422 
L 156.463636 116.080366 
L 158.718182 116.146503 
L 160.972727 116.211844 
L 163.227273 116.276397 
L 165.481818 116.340173 
L 167.736364 116.40318 
L 169.990909 116.465429 
L 172.245455 116.526927 
L 174.5 116.587684 
L 176.754545 116.647709 
L 179.009091 116.707012 
L 181.263636 116.765599 
L 183.518182 116.823481 
L 185.772727 116.880665 
L 188.027273 116.937161 
L 190.281818 116.992976 
L 192.536364 117.048118 
L 194.790909 117.102596 
L 197.045455 117.156417 
L 199.3 117.209591 
L 201.554545 117.262123 
L 203.809091 117.314023 
L 206.063636 117.365297 
L 208.318182 117.415954 
L 210.572727 117.466 
L 212.827273 117.515443 
L 215.081818 117.564291 
L 217.336364 117.61255 
L 219.590909 117.660228 
L 221.845455 117.707331 
L 224.1 117.753867 
L 226.354545 117.799842 
L 228.609091 117.845263 
L 230.863636 117.890137 
L 233.118182 117.93447 
L 235.372727 117.978269 
L 237.627273 118.021541 
L 239.881818 118.064291 
L 242.136364 118.106526 
L 244.390909 118.148252 
L 246.645455 118.189475 
L 248.9 118.230202 
" clip-path="url(#p5d43cb8957)" style="fill: none; stroke: #1f77b4; stroke-width: 1.5; stroke-linecap: square"/>
   </g>
   <g id="line2d_15">
    <path d="M 25.7 10.689844 
L 27.954545 23.347236 
L 30.209091 34.559736 
L 32.463636 44.492285 
L 34.718182 53.290994 
L 36.972727 61.085296 
L 39.227273 67.989847 
L 41.481818 74.106216 
L 43.736364 79.524377 
L 45.990909 84.324034 
L 48.245455 88.575791 
L 50.5 92.342193 
L 52.754545 95.678645 
L 55.009091 98.634228 
L 57.263636 101.25242 
L 59.518182 103.571734 
L 61.772727 105.62629 
L 64.027273 107.44631 
L 66.281818 109.058567 
L 68.536364 110.486779 
L 70.790909 111.751955 
L 73.045455 112.872706 
L 75.3 113.865519 
L 77.554545 114.744998 
L 79.809091 115.524081 
L 82.063636 116.214229 
L 84.318182 116.825594 
L 86.572727 117.367169 
L 88.827273 117.846921 
L 91.081818 118.271907 
L 93.336364 118.64838 
L 95.590909 118.981876 
L 97.845455 119.277303 
L 100.1 119.539006 
L 102.354545 119.770834 
L 104.609091 119.976198 
L 106.863636 120.158119 
L 109.118182 120.319273 
L 111.372727 120.462031 
L 113.627273 120.588492 
L 115.881818 120.700517 
L 118.136364 120.799754 
L 120.390909 120.887663 
L 122.645455 120.965537 
L 124.9 121.034521 
L 127.154545 121.09563 
L 129.409091 121.149763 
L 131.663636 121.197717 
L 133.918182 121.240197 
L 136.172727 121.277827 
L 138.427273 121.311162 
L 140.681818 121.340692 
L 142.936364 121.36685 
L 145.190909 121.390023 
L 147.445455 121.41055 
L 149.7 121.428734 
L 151.954545 121.444842 
L 154.209091 121.459112 
L 156.463636 121.471752 
L 158.718182 121.48295 
L 160.972727 121.492869 
L 163.227273 121.501656 
L 165.481818 121.50944 
L 167.736364 121.516335 
L 169.990909 121.522443 
L 172.245455 121.527854 
L 174.5 121.532648 
L 176.754545 121.536894 
L 179.009091 121.540655 
L 181.263636 121.543987 
L 183.518182 121.546939 
L 185.772727 121.549553 
L 188.027273 121.55187 
L 190.281818 121.553921 
L 192.536364 121.555739 
L 194.790909 121.557349 
L 197.045455 121.558775 
L 199.3 121.560039 
L 201.554545 121.561158 
L 203.809091 121.56215 
L 206.063636 121.563028 
L 208.318182 121.563806 
L 210.572727 121.564495 
L 212.827273 121.565106 
L 215.081818 121.565647 
L 217.336364 121.566126 
L 219.590909 121.56655 
L 221.845455 121.566926 
L 224.1 121.567259 
L 226.354545 121.567554 
L 228.609091 121.567816 
L 230.863636 121.568047 
L 233.118182 121.568252 
L 235.372727 121.568434 
L 237.627273 121.568595 
L 239.881818 121.568737 
L 242.136364 121.568864 
L 244.390909 121.568976 
L 246.645455 121.569075 
L 248.9 121.569162 
" clip-path="url(#p5d43cb8957)" style="fill: none; stroke: #ff7f0e; stroke-width: 1.5; stroke-linecap: square"/>
   </g>
   <g id="patch_3">
    <path d="M 25.7 121.569844 
L 25.7 10.689844 
" style="fill: none; stroke: #000000; stroke-width: 0.8; stroke-linejoin: miter; stroke-linecap: square"/>
   </g>
   <g id="patch_4">
    <path d="M 248.9 121.569844 
L 248.9 10.689844 
" style="fill: none; stroke: #000000; stroke-width: 0.8; stroke-linejoin: miter; stroke-linecap: square"/>
   </g>
   <g id="patch_5">
    <path d="M 25.7 121.569844 
L 248.9 121.569844 
" style="fill: none; stroke: #000000; stroke-width: 0.8; stroke-linejoin: miter; stroke-linecap: square"/>
   </g>
   <g id="patch_6">
    <path d="M 25.7 10.689844 
L 248.9 10.689844 
" style="fill: none; stroke: #000000; stroke-width: 0.8; stroke-linejoin: miter; stroke-linecap: square"/>
   </g>
   <g id="legend_1">
    <g id="patch_7">
     <path d="M 184.4 47.371094 
L 241.9 47.371094 
Q 243.9 47.371094 243.9 45.371094 
L 243.9 17.689844 
Q 243.9 15.689844 241.9 15.689844 
L 184.4 15.689844 
Q 182.4 15.689844 182.4 17.689844 
L 182.4 45.371094 
Q 182.4 47.371094 184.4 47.371094 
z
" style="fill: #ffffff; opacity: 0.8; stroke: #cccccc; stroke-linejoin: miter"/>
    </g>
    <g id="line2d_16">
     <path d="M 186.4 23.189844 
L 196.4 23.189844 
L 206.4 23.189844 
" style="fill: none; stroke: #1f77b4; stroke-width: 1.5; stroke-linecap: square"/>
    </g>
    <g id="text_14">
     <!-- $\lambda=0.1$ -->
     <g transform="translate(214.4 26.689844) scale(0.1 -0.1)">
      <defs>
       <path id="LibertinusSerif-Regular-3bb" d="M 3354 416 
C 3334 474 3296 506 3226 518 
C 3091 352 2963 320 2829 320 
C 2624 320 2547 525 2298 1370 
L 1613 3642 
C 1389 4397 1030 4467 838 4467 
C 589 4467 384 4269 218 4026 
C 230 3942 282 3930 326 3917 
C 454 4013 621 4077 781 4077 
C 960 4077 1210 3942 1472 3059 
L 1555 2784 
L 141 0 
L 301 -77 
C 448 -38 608 -13 781 0 
L 1696 2323 
L 2150 806 
C 2330 211 2483 -70 2803 -70 
C 2989 -70 3238 166 3354 416 
z
" transform="scale(0.015625)"/>
       <path id="LibertinusSerif-Regular-3d" d="M 2970 1978 
C 3053 1978 3142 2125 3142 2189 
C 3142 2240 3117 2298 3053 2298 
L 544 2298 
C 467 2298 384 2176 384 2080 
C 384 2029 422 1978 480 1978 
L 2970 1978 
z
M 2970 915 
C 3053 915 3142 1062 3142 1126 
C 3142 1178 3117 1235 3053 1235 
L 544 1235 
C 467 1235 384 1114 384 1018 
C 384 966 422 915 480 915 
L 2970 915 
z
" transform="scale(0.015625)"/>
      </defs>
      <use xlink:href="#LibertinusSerif-Regular-3bb" transform="translate(0 0.203125)"/>
      <use xlink:href="#LibertinusSerif-Regular-3d" transform="translate(68.899988 0.203125)"/>
      <use xlink:href="#LibertinusSerif-Regular-30" transform="translate(139.699969 0.203125)"/>
      <use xlink:href="#LibertinusSerif-Regular-2e" transform="translate(186.199954 0.203125)"/>
      <use xlink:href="#LibertinusSerif-Regular-31" transform="translate(208.199939 0.203125)"/>
     </g>
    </g>
    <g id="line2d_17">
     <path d="M 186.4 37.530469 
L 196.4 37.530469 
L 206.4 37.530469 
" style="fill: none; stroke: #ff7f0e; stroke-width: 1.5; stroke-linecap: square"/>
    </g>
    <g id="text_15">
     <!-- $\lambda=1$ -->
     <g transform="translate(214.4 41.030469) scale(0.1 -0.1)">
      <use xlink:href="#LibertinusSerif-Regular-3bb" transform="translate(0 0.203125)"/>
      <use xlink:href="#LibertinusSerif-Regular-3d" transform="translate(68.899988 0.203125)"/>
      <use xlink:href="#LibertinusSerif-Regular-31" transform="translate(139.699969 0.203125)"/>
     </g>
    </g>
   </g>
  </g>
 </g>
 <defs>
  <clipPath id="p5d43cb8957">
   <rect x="25.7" y="10.689844" width="223.2" height="110.88"/>
  </clipPath>
 </defs>
</svg>
