<?xml version="1.0" encoding="utf-8" standalone="no"?>
<!DOCTYPE svg PUBLIC "-//W3C//DTD SVG 1.1//EN"
  "http://www.w3.org/Graphics/SVG/1.1/DTD/svg11.dtd">
<svg xmlns:xlink="http://www.w3.org/1999/xlink" width="442.120313pt" height="210.499688pt" viewBox="0 0 442.120313 210.499688" xmlns="http://www.w3.org/2000/svg" version="1.1">
 <metadata>
  <rdf:RDF xmlns:dc="http://purl.org/dc/elements/1.1/" xmlns:cc="http://creativecommons.org/ns#" xmlns:rdf="http://www.w3.org/1999/02/22-rdf-syntax-ns#">
   <cc:Work>
    <dc:type rdf:resource="http://purl.org/dc/dcmitype/StillImage"/>
    <dc:date>1980-01-01T00:00:00+00:00</dc:date>
    <dc:format>image/svg+xml</dc:format>
    <dc:creator>
     <cc:Agent>
      <dc:title>Matplotlib v3.10.3, https://matplotlib.org/</dc:title>
     </cc:Agent>
    </dc:creator>
   </cc:Work>
  </rdf:RDF>
 </metadata>
 <defs>
  <style type="text/css">*{stroke-linejoin: round; stroke-linecap: butt}</style>
 </defs>
 <g id="figure_1">
  <g id="patch_1">
   <path d="M 0 210.499688 
L 442.120313 210.499688 
L 442.120313 0 
L 0 0 
L 0 210.499688 
z
" style="fill: none"/>
  </g>
  <g id="axes_1">
   <g id="patch_2">
    <path d="M 44.320312 173.52 
L 434.920313 173.52 
L 434.920313 7.2 
L 44.320312 7.2 
L 44.320312 173.52 
z
" style="fill: none"/>
   </g>
   <g id="patch_3">
    <path d="M 44.320312 19415.597108 
L 434.920313 19415.597108 
L 434.920313 87.281516 
L 44.320312 87.281516 
z
" clip-path="url(#p18822e3054)" style="fill: #ff0000; opacity: 0.1; stroke: #ff0000; stroke-linejoin: miter"/>
   </g>
   <g id="patch_4">
    <path d="M 44.320312 19415.597108 
L 434.920313 19415.597108 
L 434.920313 87.281516 
L 44.320312 87.281516 
z
" clip-path="url(#p18822e3054)" style="fill: #ff0000; opacity: 0.1; stroke: #ff0000; stroke-linejoin: miter"/>
   </g>
   <g id="matplotlib.axis_1">
    <g id="xtick_1">
     <g id="line2d_1">
      <defs>
       <path id="m87c1964203" d="M 0 0 
L 0 3.5 
" style="stroke: #000000; stroke-width: 0.8"/>
      </defs>
      <g>
       <use xlink:href="#m87c1964203" x="62.074812" y="173.52" style="stroke: #000000; stroke-width: 0.8"/>
      </g>
     </g>
     <g id="text_1">
      <!-- 0 -->
      <g transform="translate(59.749812 187.499688) scale(0.1 -0.1)">
       <defs>
        <path id="LibertinusSerif-Regular-30" d="M 1459 -64 
C 1952 -64 2701 435 2701 1939 
C 2701 2573 2547 3117 2266 3488 
C 2099 3712 1830 3904 1485 3904 
C 851 3904 250 3149 250 1882 
C 250 1197 461 557 813 205 
C 992 26 1210 -64 1459 -64 
z
M 1485 3680 
C 1594 3680 1696 3642 1773 3571 
C 1971 3405 2144 2918 2144 2061 
C 2144 1472 2125 1069 2035 742 
C 1894 218 1581 160 1466 160 
C 870 160 806 1254 806 1811 
C 806 3386 1197 3680 1485 3680 
z
" transform="scale(0.015625)"/>
       </defs>
       <use xlink:href="#LibertinusSerif-Regular-30"/>
      </g>
     </g>
    </g>
    <g id="xtick_2">
     <g id="line2d_2">
      <g>
       <use xlink:href="#m87c1964203" x="131.39103" y="173.52" style="stroke: #000000; stroke-width: 0.8"/>
      </g>
     </g>
     <g id="text_2">
      <!-- 50 -->
      <g transform="translate(126.74103 187.499688) scale(0.1 -0.1)">
       <defs>
        <path id="LibertinusSerif-Regular-35" d="M 2042 1210 
C 2042 602 1722 154 1338 154 
C 1094 154 1011 314 915 442 
C 832 550 723 646 589 646 
C 467 646 346 538 346 410 
C 346 147 890 -70 1254 -70 
C 2048 -70 2611 518 2611 1325 
C 2611 1946 2182 2502 1466 2502 
C 1190 2502 954 2445 838 2400 
L 966 3469 
C 1203 3443 1408 3411 1715 3411 
C 1907 3411 2125 3424 2387 3450 
L 2490 3885 
L 2445 3910 
C 2080 3872 1734 3840 1395 3840 
C 1158 3840 928 3853 704 3872 
L 486 2029 
C 826 2157 1069 2182 1299 2182 
C 1715 2182 2042 1907 2042 1210 
z
" transform="scale(0.015625)"/>
       </defs>
       <use xlink:href="#LibertinusSerif-Regular-35"/>
       <use xlink:href="#LibertinusSerif-Regular-30" transform="translate(46.499985 0)"/>
      </g>
     </g>
    </g>
    <g id="xtick_3">
     <g id="line2d_3">
      <g>
       <use xlink:href="#m87c1964203" x="200.707247" y="173.52" style="stroke: #000000; stroke-width: 0.8"/>
      </g>
     </g>
     <g id="text_3">
      <!-- 100 -->
      <g transform="translate(193.732247 187.499688) scale(0.1 -0.1)">
       <defs>
        <path id="LibertinusSerif-Regular-31" d="M 1843 781 
L 1843 3002 
C 1843 3386 1850 3776 1862 3859 
C 1862 3891 1850 3891 1824 3891 
C 1472 3674 1133 3514 570 3251 
C 582 3181 608 3117 666 3078 
C 960 3200 1101 3238 1222 3238 
C 1331 3238 1350 3085 1350 2867 
L 1350 781 
C 1350 250 1178 218 730 198 
C 691 160 691 26 730 -13 
C 1043 -6 1274 0 1619 0 
C 1926 0 2080 -6 2400 -13 
C 2438 26 2438 160 2400 198 
C 1952 218 1843 250 1843 781 
z
" transform="scale(0.015625)"/>
       </defs>
       <use xlink:href="#LibertinusSerif-Regular-31"/>
       <use xlink:href="#LibertinusSerif-Regular-30" transform="translate(46.499985 0)"/>
       <use xlink:href="#LibertinusSerif-Regular-30" transform="translate(92.999969 0)"/>
      </g>
     </g>
    </g>
    <g id="xtick_4">
     <g id="line2d_4">
      <g>
       <use xlink:href="#m87c1964203" x="270.023464" y="173.52" style="stroke: #000000; stroke-width: 0.8"/>
      </g>
     </g>
     <g id="text_4">
      <!-- 150 -->
      <g transform="translate(263.048464 187.499688) scale(0.1 -0.1)">
       <use xlink:href="#LibertinusSerif-Regular-31"/>
       <use xlink:href="#LibertinusSerif-Regular-35" transform="translate(46.499985 0)"/>
       <use xlink:href="#LibertinusSerif-Regular-30" transform="translate(92.999969 0)"/>
      </g>
     </g>
    </g>
    <g id="xtick_5">
     <g id="line2d_5">
      <g>
       <use xlink:href="#m87c1964203" x="339.339682" y="173.52" style="stroke: #000000; stroke-width: 0.8"/>
      </g>
     </g>
     <g id="text_5">
      <!-- 200 -->
      <g transform="translate(332.364682 187.499688) scale(0.1 -0.1)">
       <defs>
        <path id="LibertinusSerif-Regular-32" d="M 390 2995 
C 390 2861 512 2746 646 2746 
C 755 2746 947 2861 947 3002 
C 947 3053 934 3091 922 3136 
C 909 3181 870 3238 870 3290 
C 870 3450 1037 3680 1504 3680 
C 1734 3680 2061 3520 2061 2906 
C 2061 2496 1914 2163 1536 1779 
L 1062 1312 
C 435 672 333 365 333 -13 
C 333 -13 659 0 864 0 
L 1984 0 
C 2189 0 2483 -13 2483 -13 
C 2566 326 2630 806 2637 998 
C 2598 1030 2515 1043 2451 1030 
C 2342 576 2234 416 2003 416 
L 864 416 
C 864 723 1306 1158 1338 1190 
L 1984 1811 
C 2349 2163 2624 2445 2624 2931 
C 2624 3622 2061 3904 1542 3904 
C 832 3904 390 3379 390 2995 
z
" transform="scale(0.015625)"/>
       </defs>
       <use xlink:href="#LibertinusSerif-Regular-32"/>
       <use xlink:href="#LibertinusSerif-Regular-30" transform="translate(46.499985 0)"/>
       <use xlink:href="#LibertinusSerif-Regular-30" transform="translate(92.999969 0)"/>
      </g>
     </g>
    </g>
    <g id="xtick_6">
     <g id="line2d_6">
      <g>
       <use xlink:href="#m87c1964203" x="408.655899" y="173.52" style="stroke: #000000; stroke-width: 0.8"/>
      </g>
     </g>
     <g id="text_6">
      <!-- 250 -->
      <g transform="translate(401.680899 187.499688) scale(0.1 -0.1)">
       <use xlink:href="#LibertinusSerif-Regular-32"/>
       <use xlink:href="#LibertinusSerif-Regular-35" transform="translate(46.499985 0)"/>
       <use xlink:href="#LibertinusSerif-Regular-30" transform="translate(92.999969 0)"/>
      </g>
     </g>
    </g>
    <g id="text_7">
     <!-- Original runtime (s) -->
     <g transform="translate(198.950781 200.92) scale(0.1 -0.1)">
      <defs>
       <path id="LibertinusSerif-Regular-4f" d="M 4262 2106 
C 4262 3430 3347 4211 2202 4211 
C 960 4211 237 3226 237 1984 
C 237 723 1152 -64 2240 -64 
C 2950 -64 3514 243 3866 742 
C 4122 1107 4262 1568 4262 2106 
z
M 2118 3981 
C 2963 3981 3648 3277 3648 1984 
C 3648 838 3098 166 2368 166 
C 1587 166 851 864 851 2093 
C 851 3437 1485 3981 2118 3981 
z
" transform="scale(0.015625)"/>
       <path id="LibertinusSerif-Regular-72" d="M 1126 2291 
C 1114 2547 1107 2714 1075 2778 
C 1062 2810 1050 2829 998 2829 
C 819 2758 653 2701 211 2643 
C 198 2605 211 2502 224 2464 
C 570 2432 640 2400 640 2029 
L 640 781 
C 640 250 563 224 166 198 
C 128 160 128 26 166 -13 
C 390 -6 640 0 896 0 
C 1152 0 1446 -6 1670 -13 
C 1709 26 1709 160 1670 198 
C 1222 230 1146 250 1146 781 
L 1146 1670 
C 1146 1837 1222 1984 1299 2099 
C 1370 2202 1517 2413 1594 2413 
C 1651 2413 1709 2400 1760 2330 
C 1805 2266 1882 2182 1990 2182 
C 2144 2182 2291 2342 2291 2502 
C 2291 2624 2176 2810 1907 2810 
C 1606 2810 1344 2528 1197 2278 
C 1158 2208 1126 2259 1126 2291 
z
" transform="scale(0.015625)"/>
       <path id="LibertinusSerif-Regular-69" d="M 1158 781 
L 1158 2054 
C 1158 2374 1184 2784 1184 2784 
C 1184 2810 1152 2829 1101 2829 
C 922 2758 666 2701 224 2643 
C 211 2605 224 2502 237 2464 
C 589 2432 653 2394 653 2029 
L 653 781 
C 653 250 582 230 192 198 
C 154 160 154 26 192 -13 
C 403 -6 653 0 909 0 
C 1165 0 1408 -6 1619 -13 
C 1658 26 1658 160 1619 198 
C 1229 224 1158 250 1158 781 
z
M 576 3834 
C 576 3667 730 3501 883 3501 
C 1062 3501 1216 3674 1216 3808 
C 1216 3962 1082 4141 909 4141 
C 755 4141 576 3987 576 3834 
z
" transform="scale(0.015625)"/>
       <path id="LibertinusSerif-Regular-67" d="M 2842 2477 
C 2963 2477 3078 2592 3078 2720 
C 3078 2854 2957 2957 2784 2957 
C 2618 2957 2310 2848 2144 2630 
C 2067 2682 1856 2810 1478 2810 
C 909 2810 384 2426 384 1837 
C 384 1491 538 1293 717 1120 
C 538 966 435 691 435 474 
C 435 243 563 64 730 -19 
C 384 -224 205 -518 205 -794 
C 205 -1350 730 -1523 1222 -1523 
C 2086 -1523 3021 -1107 3021 -416 
C 3021 -211 2925 -51 2739 102 
C 2490 307 2042 314 1805 314 
C 1690 314 1530 301 1376 282 
C 1280 275 1216 269 1184 269 
C 998 269 774 358 774 634 
C 774 762 813 896 890 1005 
C 1043 915 1222 870 1472 870 
C 2035 870 2554 1222 2554 1850 
C 2554 2150 2464 2323 2278 2515 
C 2323 2579 2451 2669 2534 2669 
C 2579 2669 2624 2650 2662 2592 
C 2688 2541 2771 2477 2842 2477 
z
M 845 -64 
C 915 -83 1018 -96 1101 -96 
C 1299 -96 1478 -77 1568 -77 
C 1888 -77 2157 -83 2342 -186 
C 2592 -326 2669 -416 2669 -582 
C 2669 -1043 1990 -1286 1414 -1286 
C 1184 -1286 646 -1101 646 -666 
C 646 -448 659 -288 845 -64 
z
M 2042 1786 
C 2042 1190 1741 1069 1504 1069 
C 966 1069 909 1523 909 1933 
C 909 2381 1069 2611 1421 2611 
C 1824 2611 2042 2317 2042 1786 
z
" transform="scale(0.015625)"/>
       <path id="LibertinusSerif-Regular-6e" d="M 1178 2291 
C 1139 2246 1101 2234 1101 2291 
C 1094 2464 1082 2714 1050 2778 
C 1037 2810 1024 2829 973 2829 
C 794 2758 627 2701 186 2643 
C 173 2605 186 2502 198 2464 
C 544 2432 614 2400 614 2029 
L 614 781 
C 614 256 550 230 166 198 
C 128 160 128 26 166 -13 
C 358 -6 614 0 870 0 
C 1126 0 1318 -6 1510 -13 
C 1549 26 1549 160 1510 198 
C 1184 230 1120 256 1120 781 
L 1120 1830 
C 1120 1965 1178 2042 1229 2099 
C 1472 2336 1760 2477 2010 2477 
C 2138 2477 2272 2394 2349 2246 
C 2413 2118 2426 1946 2426 1754 
L 2426 781 
C 2426 256 2362 230 2029 198 
C 1997 160 1997 26 2029 -13 
C 2221 -6 2426 0 2682 0 
C 2938 0 3168 -6 3360 -13 
C 3392 26 3392 160 3360 198 
C 3002 230 2931 256 2931 781 
L 2931 1734 
C 2931 2086 2906 2394 2758 2592 
C 2650 2733 2451 2810 2227 2810 
C 1914 2810 1555 2726 1178 2291 
z
" transform="scale(0.015625)"/>
       <path id="LibertinusSerif-Regular-61" d="M 1875 307 
C 1914 109 1984 -64 2304 -64 
C 2547 -64 2778 45 2912 173 
C 2899 250 2874 307 2803 346 
C 2758 307 2650 243 2566 243 
C 2381 243 2374 493 2374 787 
L 2374 1728 
C 2374 2637 1875 2810 1408 2810 
C 883 2810 352 2464 352 2099 
C 352 1946 429 1869 576 1869 
C 762 1869 877 2003 877 2086 
C 877 2131 870 2176 858 2202 
C 851 2221 845 2259 845 2330 
C 845 2528 1114 2598 1357 2598 
C 1574 2598 1875 2490 1875 1766 
C 1875 1722 1856 1696 1837 1690 
L 1286 1555 
C 672 1402 230 1062 230 627 
C 230 102 589 -64 1037 -64 
C 1261 -64 1453 -13 1734 205 
L 1862 307 
L 1875 307 
z
M 1875 1491 
L 1875 646 
C 1875 563 1837 518 1786 480 
C 1619 346 1402 198 1222 198 
C 902 198 762 454 762 653 
C 762 941 896 1235 1370 1357 
L 1875 1491 
z
" transform="scale(0.015625)"/>
       <path id="LibertinusSerif-Regular-6c" d="M 608 781 
C 608 250 538 218 147 198 
C 109 160 109 26 147 -13 
C 371 -6 608 0 864 0 
C 1120 0 1363 -6 1574 -13 
C 1613 26 1613 160 1574 198 
C 1184 218 1114 250 1114 781 
L 1114 3731 
C 1114 4147 1139 4403 1139 4403 
C 1139 4448 1114 4467 1056 4467 
C 896 4403 416 4314 160 4294 
C 147 4243 160 4141 198 4102 
C 570 4077 608 4058 608 3578 
L 608 781 
z
" transform="scale(0.015625)"/>
       <path id="LibertinusSerif-Regular-20" transform="scale(0.015625)"/>
       <path id="LibertinusSerif-Regular-75" d="M 1389 -64 
C 1638 -64 1939 64 2253 320 
C 2285 346 2342 358 2349 314 
C 2368 154 2419 -64 2419 -64 
C 2470 -83 2502 -77 2541 -64 
C 2682 51 2906 147 3296 192 
C 3334 230 3334 326 3296 365 
C 2886 397 2829 518 2829 832 
L 2829 2061 
C 2829 2253 2854 2720 2854 2720 
C 2854 2739 2835 2758 2803 2758 
C 2771 2752 2675 2746 2579 2746 
C 2374 2746 2144 2752 1926 2758 
C 1888 2720 1888 2586 1926 2547 
C 2240 2528 2323 2451 2323 2029 
L 2323 794 
C 2323 672 2310 621 2221 544 
C 1984 339 1741 237 1581 237 
C 1389 237 1069 326 1069 896 
L 1069 2061 
C 1069 2253 1094 2720 1094 2720 
C 1094 2739 1075 2758 1043 2758 
C 1011 2752 915 2746 819 2746 
C 614 2746 384 2752 166 2758 
C 128 2720 128 2586 166 2547 
C 474 2522 563 2451 563 2035 
L 563 806 
C 563 365 755 -64 1389 -64 
z
" transform="scale(0.015625)"/>
       <path id="LibertinusSerif-Regular-74" d="M 275 2746 
C 186 2746 160 2669 160 2618 
L 160 2534 
C 160 2502 166 2496 192 2496 
L 570 2496 
L 570 570 
C 570 115 768 -64 1062 -64 
C 1357 -64 1677 77 1926 358 
C 1914 422 1875 461 1811 467 
C 1645 339 1453 288 1286 288 
C 1114 288 1075 480 1075 877 
L 1075 2496 
L 1741 2496 
C 1805 2496 1894 2522 1894 2579 
L 1894 2707 
C 1894 2733 1875 2746 1843 2746 
L 1075 2746 
L 1075 2995 
C 1075 3411 1101 3667 1101 3667 
C 1101 3706 1082 3725 1050 3725 
C 1024 3725 966 3699 909 3667 
C 838 3629 774 3597 691 3578 
C 614 3552 550 3533 550 3488 
C 550 3411 570 3456 570 2746 
L 275 2746 
z
" transform="scale(0.015625)"/>
       <path id="LibertinusSerif-Regular-6d" d="M 1088 2291 
C 1082 2483 1069 2714 1037 2778 
C 1024 2810 1011 2829 960 2829 
C 781 2758 614 2701 173 2643 
C 160 2605 173 2502 186 2464 
C 531 2432 602 2400 602 2029 
L 602 781 
C 602 256 518 224 166 198 
C 128 160 128 26 166 -13 
C 358 -6 602 0 858 0 
C 1114 0 1312 -6 1504 -13 
C 1542 26 1542 160 1504 198 
C 1178 230 1107 256 1107 781 
L 1107 1830 
C 1107 1965 1165 2042 1216 2099 
C 1472 2349 1709 2477 1907 2477 
C 2150 2477 2330 2323 2330 1894 
L 2330 781 
C 2330 256 2278 224 1933 198 
C 1901 160 1901 26 1933 -13 
C 2093 -6 2330 0 2586 0 
C 2842 0 3053 -6 3213 -13 
C 3245 26 3245 160 3213 198 
C 2893 224 2835 256 2835 781 
L 2835 1798 
C 2835 1888 2835 1978 2829 2054 
C 3136 2394 3424 2477 3674 2477 
C 3917 2477 4058 2336 4058 1907 
L 4058 781 
C 4058 256 3994 224 3661 198 
C 3629 160 3629 26 3661 -13 
C 3821 -6 4058 0 4314 0 
C 4570 0 4794 -6 4973 -13 
C 5005 26 5005 160 4973 198 
C 4621 224 4563 256 4563 781 
L 4563 1792 
C 4563 2362 4467 2810 3904 2810 
C 3578 2810 3181 2688 2848 2336 
C 2829 2317 2790 2285 2778 2342 
C 2720 2605 2470 2810 2138 2810 
C 1766 2810 1434 2592 1165 2291 
C 1133 2259 1094 2214 1088 2291 
z
" transform="scale(0.015625)"/>
       <path id="LibertinusSerif-Regular-65" d="M 2470 595 
C 2234 352 2048 250 1677 250 
C 1446 250 1178 384 979 710 
C 851 922 774 1216 774 1587 
L 2477 1574 
C 2554 1574 2598 1613 2598 1683 
C 2598 2221 2406 2797 1517 2797 
C 960 2797 237 2266 237 1293 
C 237 934 326 589 538 346 
C 755 90 1056 -64 1517 -64 
C 2003 -64 2349 160 2605 493 
C 2586 557 2547 589 2470 595 
z
M 794 1805 
C 915 2528 1363 2586 1517 2586 
C 1760 2586 2048 2451 2048 1914 
C 2048 1856 2022 1824 1952 1824 
L 794 1805 
z
" transform="scale(0.015625)"/>
       <path id="LibertinusSerif-Regular-28" d="M 282 1613 
C 282 1325 307 -154 1638 -1306 
C 1702 -1293 1754 -1248 1773 -1197 
C 1562 -954 813 -70 813 1613 
C 813 3296 1568 4179 1773 4410 
C 1754 4474 1709 4518 1638 4525 
C 877 3872 282 2803 282 1613 
z
" transform="scale(0.015625)"/>
       <path id="LibertinusSerif-Regular-73" d="M 307 883 
C 333 570 352 269 352 0 
C 416 13 480 19 512 19 
C 557 19 595 19 640 6 
C 813 -38 986 -64 1222 -64 
C 1581 -64 2240 109 2240 742 
C 2240 1178 1926 1434 1491 1594 
C 1107 1741 851 1837 851 2189 
C 851 2451 1082 2598 1299 2598 
C 1440 2598 1811 2547 1894 2003 
C 1933 1965 2061 1971 2099 2010 
C 2118 2240 2131 2477 2138 2688 
C 1939 2720 1632 2810 1299 2810 
C 826 2810 397 2502 397 2093 
C 397 1626 608 1427 1101 1222 
C 1632 1005 1754 870 1754 595 
C 1754 282 1446 147 1210 147 
C 960 147 819 230 755 301 
C 614 448 544 730 506 890 
C 467 928 346 922 307 883 
z
" transform="scale(0.015625)"/>
       <path id="LibertinusSerif-Regular-29" d="M 1626 1613 
C 1626 1901 1600 3379 269 4531 
C 205 4518 154 4474 134 4422 
C 346 4179 1094 3296 1094 1613 
C 1094 -70 339 -954 134 -1184 
C 154 -1248 198 -1293 269 -1299 
C 1030 -646 1626 422 1626 1613 
z
" transform="scale(0.015625)"/>
      </defs>
      <use xlink:href="#LibertinusSerif-Regular-4f"/>
      <use xlink:href="#LibertinusSerif-Regular-72" transform="translate(70.199982 0)"/>
      <use xlink:href="#LibertinusSerif-Regular-69" transform="translate(107.399979 0)"/>
      <use xlink:href="#LibertinusSerif-Regular-67" transform="translate(134.499969 0)"/>
      <use xlink:href="#LibertinusSerif-Regular-69" transform="translate(184.499954 0)"/>
      <use xlink:href="#LibertinusSerif-Regular-6e" transform="translate(211.599945 0)"/>
      <use xlink:href="#LibertinusSerif-Regular-61" transform="translate(265.799942 0)"/>
      <use xlink:href="#LibertinusSerif-Regular-6c" transform="translate(311.499939 0)"/>
      <use xlink:href="#LibertinusSerif-Regular-20" transform="translate(337.899933 0)"/>
      <use xlink:href="#LibertinusSerif-Regular-72" transform="translate(362.899918 0)"/>
      <use xlink:href="#LibertinusSerif-Regular-75" transform="translate(400.099915 0)"/>
      <use xlink:href="#LibertinusSerif-Regular-6e" transform="translate(453.199905 0)"/>
      <use xlink:href="#LibertinusSerif-Regular-74" transform="translate(507.399902 0)"/>
      <use xlink:href="#LibertinusSerif-Regular-69" transform="translate(538.999893 0)"/>
      <use xlink:href="#LibertinusSerif-Regular-6d" transform="translate(566.099884 0)"/>
      <use xlink:href="#LibertinusSerif-Regular-65" transform="translate(645.099869 0)"/>
      <use xlink:href="#LibertinusSerif-Regular-20" transform="translate(689.799866 0)"/>
      <use xlink:href="#LibertinusSerif-Regular-28" transform="translate(714.79985 0)"/>
      <use xlink:href="#LibertinusSerif-Regular-73" transform="translate(744.599838 0)"/>
      <use xlink:href="#LibertinusSerif-Regular-29" transform="translate(783.599823 0)"/>
     </g>
    </g>
   </g>
   <g id="matplotlib.axis_2">
    <g id="ytick_1">
     <g id="line2d_7">
      <defs>
       <path id="mf3bfe2ee60" d="M 0 0 
L -3.5 0 
" style="stroke: #000000; stroke-width: 0.8"/>
      </defs>
      <g>
       <use xlink:href="#mf3bfe2ee60" x="44.320312" y="145.266463" style="stroke: #000000; stroke-width: 0.8"/>
      </g>
     </g>
     <g id="text_8">
      <!-- $\mathdefault{10^{-3}}$ -->
      <g transform="translate(20.620313 148.756306) scale(0.1 -0.1)">
       <defs>
        <path id="LibertinusSerif-Regular-2212" d="M 2963 1446 
C 3046 1446 3136 1594 3136 1658 
C 3136 1709 3110 1766 3046 1766 
L 544 1766 
C 467 1766 384 1645 384 1549 
C 384 1498 422 1446 480 1446 
L 2963 1446 
z
" transform="scale(0.015625)"/>
        <path id="LibertinusSerif-Regular-33" d="M 1376 3680 
C 1651 3680 1907 3514 1907 3104 
C 1907 2784 1536 2291 902 2202 
L 934 1997 
C 1043 2010 1158 2010 1242 2010 
C 1606 2010 2080 1907 2080 1184 
C 2080 333 1510 160 1286 160 
C 960 160 902 307 826 422 
C 762 512 678 589 550 589 
C 416 589 282 467 282 365 
C 282 109 819 -64 1203 -64 
C 1965 -64 2643 429 2643 1274 
C 2643 1971 2118 2221 1741 2285 
L 1734 2298 
C 2259 2547 2406 2810 2406 3149 
C 2406 3341 2362 3494 2208 3654 
C 2067 3795 1843 3904 1510 3904 
C 570 3904 301 3290 301 3078 
C 301 2989 365 2861 518 2861 
C 742 2861 768 3072 768 3194 
C 768 3603 1210 3680 1376 3680 
z
" transform="scale(0.015625)"/>
       </defs>
       <use xlink:href="#LibertinusSerif-Regular-31" transform="translate(0 0.134375)"/>
       <use xlink:href="#LibertinusSerif-Regular-30" transform="translate(46.499985 0.134375)"/>
       <use xlink:href="#LibertinusSerif-Regular-2212" transform="translate(93.75411 30.3) scale(0.7)"/>
       <use xlink:href="#LibertinusSerif-Regular-33" transform="translate(132.254099 30.3) scale(0.7)"/>
      </g>
     </g>
    </g>
    <g id="ytick_2">
     <g id="line2d_8">
      <g>
       <use xlink:href="#mf3bfe2ee60" x="44.320312" y="106.609831" style="stroke: #000000; stroke-width: 0.8"/>
      </g>
     </g>
     <g id="text_9">
      <!-- $\mathdefault{10^{-1}}$ -->
      <g transform="translate(20.620313 110.099675) scale(0.1 -0.1)">
       <use xlink:href="#LibertinusSerif-Regular-31" transform="translate(0 0.276563)"/>
       <use xlink:href="#LibertinusSerif-Regular-30" transform="translate(46.499985 0.276563)"/>
       <use xlink:href="#LibertinusSerif-Regular-2212" transform="translate(93.75411 30.442188) scale(0.7)"/>
       <use xlink:href="#LibertinusSerif-Regular-31" transform="translate(132.254099 30.442188) scale(0.7)"/>
      </g>
     </g>
    </g>
    <g id="ytick_3">
     <g id="line2d_9">
      <g>
       <use xlink:href="#mf3bfe2ee60" x="44.320312" y="67.9532" style="stroke: #000000; stroke-width: 0.8"/>
      </g>
     </g>
     <g id="text_10">
      <!-- $\mathdefault{10^{1}}$ -->
      <g transform="translate(24.420313 71.443044) scale(0.1 -0.1)">
       <use xlink:href="#LibertinusSerif-Regular-31" transform="translate(0 0.276563)"/>
       <use xlink:href="#LibertinusSerif-Regular-30" transform="translate(46.499985 0.276563)"/>
       <use xlink:href="#LibertinusSerif-Regular-31" transform="translate(93.75411 30.442188) scale(0.7)"/>
      </g>
     </g>
    </g>
    <g id="ytick_4">
     <g id="line2d_10">
      <g>
       <use xlink:href="#mf3bfe2ee60" x="44.320312" y="29.296569" style="stroke: #000000; stroke-width: 0.8"/>
      </g>
     </g>
     <g id="text_11">
      <!-- $\mathdefault{10^{3}}$ -->
      <g transform="translate(24.420313 32.786413) scale(0.1 -0.1)">
       <use xlink:href="#LibertinusSerif-Regular-31" transform="translate(0 0.134375)"/>
       <use xlink:href="#LibertinusSerif-Regular-30" transform="translate(46.499985 0.134375)"/>
       <use xlink:href="#LibertinusSerif-Regular-33" transform="translate(93.75411 30.3) scale(0.7)"/>
      </g>
     </g>
    </g>
    <g id="text_12">
     <!-- Mean speedup (problems/s %) -->
     <g transform="translate(14.279687 150.956875) rotate(-90) scale(0.1 -0.1)">
      <defs>
       <path id="LibertinusSerif-Regular-4d" d="M 4243 742 
C 4275 224 4250 218 3834 198 
C 3795 160 3795 26 3834 -13 
C 4070 -6 4326 0 4518 0 
C 4710 0 5005 -6 5216 -13 
C 5254 26 5254 160 5216 198 
C 4781 218 4762 243 4723 774 
L 4531 3469 
C 4506 3814 4538 3904 4973 3930 
C 5011 3968 5011 4102 4973 4141 
L 4134 4128 
L 2778 883 
C 2752 819 2733 794 2720 794 
C 2707 794 2688 826 2669 877 
L 1357 4128 
L 429 4141 
C 390 4102 390 3968 429 3930 
C 870 3904 909 3891 864 3411 
L 608 774 
C 570 390 493 230 128 198 
C 90 160 90 26 128 -13 
C 320 -6 525 0 678 0 
C 832 0 1088 -6 1280 -13 
C 1318 26 1318 160 1280 198 
C 858 230 826 429 858 787 
L 1101 3354 
L 1114 3354 
L 2438 32 
C 2458 -13 2496 -64 2534 -64 
C 2573 -64 2598 -19 2624 32 
L 4064 3418 
L 4077 3418 
L 4243 742 
z
" transform="scale(0.015625)"/>
       <path id="LibertinusSerif-Regular-70" d="M 998 2355 
C 992 2547 979 2714 947 2778 
C 934 2810 922 2829 870 2829 
C 691 2758 525 2701 83 2643 
C 70 2605 83 2502 96 2464 
C 442 2432 512 2400 512 2029 
L 512 -704 
C 512 -1235 442 -1267 51 -1286 
C 13 -1325 13 -1459 51 -1498 
C 275 -1491 512 -1485 768 -1485 
C 1024 -1485 1331 -1491 1542 -1498 
C 1581 -1459 1581 -1325 1542 -1286 
C 1088 -1261 1018 -1235 1018 -704 
L 1018 -13 
C 1018 70 1043 64 1107 38 
C 1267 -26 1459 -64 1664 -64 
C 2022 -64 2342 45 2605 294 
C 2906 589 3078 986 3078 1504 
C 3078 2182 2598 2810 1946 2810 
C 1651 2810 1325 2618 1069 2330 
C 1030 2291 1005 2291 998 2355 
z
M 1120 2118 
C 1286 2323 1581 2515 1766 2515 
C 2176 2515 2528 2054 2528 1331 
C 2528 806 2342 154 1626 154 
C 1510 154 1286 186 1171 288 
C 1043 403 1018 442 1018 672 
L 1018 1837 
C 1018 1971 1043 2029 1120 2118 
z
" transform="scale(0.015625)"/>
       <path id="LibertinusSerif-Regular-64" d="M 2138 320 
C 2170 346 2227 358 2234 314 
C 2253 160 2304 -64 2304 -64 
C 2355 -83 2387 -77 2426 -64 
C 2566 51 2790 147 3181 192 
C 3219 230 3219 326 3181 365 
C 2771 397 2714 518 2714 832 
L 2714 3731 
C 2714 4147 2739 4403 2739 4403 
C 2739 4448 2714 4467 2656 4467 
C 2496 4403 2016 4314 1760 4294 
C 1747 4243 1760 4141 1798 4102 
C 1818 4102 1837 4102 1856 4102 
C 2138 4083 2208 4083 2208 3578 
L 2208 2758 
C 2208 2714 2195 2701 2150 2701 
C 2125 2701 1862 2810 1651 2810 
C 1229 2810 947 2669 691 2426 
C 416 2150 250 1773 250 1299 
C 250 512 646 -64 1338 -64 
C 1587 -64 1824 64 2138 320 
z
M 2208 794 
C 2208 672 2195 621 2106 544 
C 1869 339 1664 237 1504 237 
C 1158 237 800 614 800 1414 
C 800 1875 890 2131 986 2266 
C 1184 2566 1453 2586 1581 2586 
C 1811 2586 1971 2502 2099 2355 
C 2189 2253 2208 2208 2208 2010 
L 2208 794 
z
" transform="scale(0.015625)"/>
       <path id="LibertinusSerif-Regular-6f" d="M 262 1312 
C 262 659 698 -64 1606 -64 
C 2016 -64 2330 83 2547 294 
C 2835 576 2963 979 2963 1370 
C 2963 2035 2598 2810 1619 2810 
C 1197 2810 851 2637 614 2362 
C 384 2086 262 1715 262 1312 
z
M 1523 2586 
C 2074 2586 2413 2086 2413 1165 
C 2413 358 1997 160 1696 160 
C 1030 160 813 966 813 1459 
C 813 2016 947 2586 1523 2586 
z
" transform="scale(0.015625)"/>
       <path id="LibertinusSerif-Regular-62" d="M 1069 2522 
C 1030 2483 1005 2496 1005 2554 
L 1005 3731 
C 1005 4147 1030 4403 1030 4403 
C 1030 4448 1005 4467 947 4467 
C 787 4403 307 4314 51 4294 
C 38 4243 51 4141 90 4102 
C 109 4102 128 4102 147 4102 
C 429 4083 499 4083 499 3578 
L 499 454 
C 499 205 493 90 474 0 
C 506 -51 538 -77 614 -77 
C 653 -38 717 19 768 77 
C 832 154 870 154 941 96 
C 1088 -26 1280 -64 1504 -64 
C 2157 -64 2918 531 2918 1549 
C 2918 2330 2342 2810 1786 2810 
C 1510 2810 1267 2701 1069 2522 
z
M 1114 2323 
C 1280 2470 1472 2528 1658 2528 
C 2048 2528 2368 2054 2368 1434 
C 2368 704 2074 154 1466 154 
C 1267 154 1133 294 1005 454 
L 1005 2054 
C 1005 2189 1030 2253 1114 2323 
z
" transform="scale(0.015625)"/>
       <path id="LibertinusSerif-Regular-2f" d="M 1875 4134 
L 1613 4134 
L 96 -378 
L 358 -378 
L 1875 4134 
z
" transform="scale(0.015625)"/>
       <path id="LibertinusSerif-Regular-25" d="M 2330 3334 
C 2214 3334 1990 3334 1645 3494 
C 1581 3571 1395 3654 1216 3654 
C 755 3654 365 3200 365 2637 
C 365 2310 557 1939 954 1939 
C 1491 1939 1773 2662 1773 3072 
C 1773 3130 1766 3187 1754 3232 
C 1875 3162 2118 3098 2266 3098 
C 2458 3098 2707 3123 2950 3219 
L 653 19 
L 870 -77 
L 3494 3578 
L 3290 3680 
C 3091 3411 2598 3334 2330 3334 
z
M 2419 627 
C 2419 288 2624 -77 3014 -77 
C 3546 -77 3827 627 3827 1056 
C 3827 1523 3533 1638 3277 1638 
C 2803 1638 2419 1152 2419 627 
z
M 710 2547 
C 710 2918 973 3456 1286 3456 
C 1402 3456 1562 3386 1562 3066 
C 1562 2694 1344 2138 992 2138 
C 877 2138 710 2214 710 2547 
z
M 2771 531 
C 2771 902 3034 1440 3347 1440 
C 3437 1440 3616 1382 3616 1050 
C 3616 691 3405 122 3053 122 
C 2931 122 2771 198 2771 531 
z
" transform="scale(0.015625)"/>
      </defs>
      <use xlink:href="#LibertinusSerif-Regular-4d"/>
      <use xlink:href="#LibertinusSerif-Regular-65" transform="translate(83.899994 0)"/>
      <use xlink:href="#LibertinusSerif-Regular-61" transform="translate(128.599991 0)"/>
      <use xlink:href="#LibertinusSerif-Regular-6e" transform="translate(174.299988 0)"/>
      <use xlink:href="#LibertinusSerif-Regular-20" transform="translate(228.499985 0)"/>
      <use xlink:href="#LibertinusSerif-Regular-73" transform="translate(253.499969 0)"/>
      <use xlink:href="#LibertinusSerif-Regular-70" transform="translate(292.499954 0)"/>
      <use xlink:href="#LibertinusSerif-Regular-65" transform="translate(344.399948 0)"/>
      <use xlink:href="#LibertinusSerif-Regular-65" transform="translate(389.099945 0)"/>
      <use xlink:href="#LibertinusSerif-Regular-64" transform="translate(433.799942 0)"/>
      <use xlink:href="#LibertinusSerif-Regular-75" transform="translate(484.399933 0)"/>
      <use xlink:href="#LibertinusSerif-Regular-70" transform="translate(537.499924 0)"/>
      <use xlink:href="#LibertinusSerif-Regular-20" transform="translate(589.399918 0)"/>
      <use xlink:href="#LibertinusSerif-Regular-28" transform="translate(614.399902 0)"/>
      <use xlink:href="#LibertinusSerif-Regular-70" transform="translate(644.19989 0)"/>
      <use xlink:href="#LibertinusSerif-Regular-72" transform="translate(696.099884 0)"/>
      <use xlink:href="#LibertinusSerif-Regular-6f" transform="translate(733.299881 0)"/>
      <use xlink:href="#LibertinusSerif-Regular-62" transform="translate(783.699875 0)"/>
      <use xlink:href="#LibertinusSerif-Regular-6c" transform="translate(832.999863 0)"/>
      <use xlink:href="#LibertinusSerif-Regular-65" transform="translate(859.399857 0)"/>
      <use xlink:href="#LibertinusSerif-Regular-6d" transform="translate(904.099854 0)"/>
      <use xlink:href="#LibertinusSerif-Regular-73" transform="translate(983.099838 0)"/>
      <use xlink:href="#LibertinusSerif-Regular-2f" transform="translate(1022.099823 0)"/>
      <use xlink:href="#LibertinusSerif-Regular-73" transform="translate(1054.399811 0)"/>
      <use xlink:href="#LibertinusSerif-Regular-20" transform="translate(1093.399796 0)"/>
      <use xlink:href="#LibertinusSerif-Regular-25" transform="translate(1118.39978 0)"/>
      <use xlink:href="#LibertinusSerif-Regular-29" transform="translate(1182.099777 0)"/>
     </g>
    </g>
   </g>
   <g id="line2d_11">
    <path d="M 62.074858 173.52 
L 62.074858 7.2 
" clip-path="url(#p18822e3054)" style="fill: none; stroke-dasharray: 1.85,0.8; stroke-dashoffset: 0; stroke: #808080; stroke-opacity: 0.3; stroke-width: 0.5"/>
   </g>
   <g id="line2d_12">
    <path d="M 85.747585 173.52 
L 85.747585 7.2 
" clip-path="url(#p18822e3054)" style="fill: none; stroke-dasharray: 1.85,0.8; stroke-dashoffset: 0; stroke: #808080; stroke-opacity: 0.3; stroke-width: 0.5"/>
   </g>
   <g id="line2d_13">
    <path d="M 109.420313 173.52 
L 109.420313 7.2 
" clip-path="url(#p18822e3054)" style="fill: none; stroke-dasharray: 1.85,0.8; stroke-dashoffset: 0; stroke: #808080; stroke-opacity: 0.3; stroke-width: 0.5"/>
   </g>
   <g id="line2d_14">
    <path d="M 133.09304 173.52 
L 133.09304 7.2 
" clip-path="url(#p18822e3054)" style="fill: none; stroke-dasharray: 1.85,0.8; stroke-dashoffset: 0; stroke: #808080; stroke-opacity: 0.3; stroke-width: 0.5"/>
   </g>
   <g id="line2d_15">
    <path d="M 156.765767 173.52 
L 156.765767 7.2 
" clip-path="url(#p18822e3054)" style="fill: none; stroke-dasharray: 1.85,0.8; stroke-dashoffset: 0; stroke: #808080; stroke-opacity: 0.3; stroke-width: 0.5"/>
   </g>
   <g id="line2d_16">
    <path d="M 180.438494 173.52 
L 180.438494 7.2 
" clip-path="url(#p18822e3054)" style="fill: none; stroke-dasharray: 1.85,0.8; stroke-dashoffset: 0; stroke: #808080; stroke-opacity: 0.3; stroke-width: 0.5"/>
   </g>
   <g id="line2d_17">
    <path d="M 204.111222 173.52 
L 204.111222 7.2 
" clip-path="url(#p18822e3054)" style="fill: none; stroke-dasharray: 1.85,0.8; stroke-dashoffset: 0; stroke: #808080; stroke-opacity: 0.3; stroke-width: 0.5"/>
   </g>
   <g id="line2d_18">
    <path d="M 227.783949 173.52 
L 227.783949 7.2 
" clip-path="url(#p18822e3054)" style="fill: none; stroke-dasharray: 1.85,0.8; stroke-dashoffset: 0; stroke: #808080; stroke-opacity: 0.3; stroke-width: 0.5"/>
   </g>
   <g id="line2d_19">
    <path d="M 251.456676 173.52 
L 251.456676 7.2 
" clip-path="url(#p18822e3054)" style="fill: none; stroke-dasharray: 1.85,0.8; stroke-dashoffset: 0; stroke: #808080; stroke-opacity: 0.3; stroke-width: 0.5"/>
   </g>
   <g id="line2d_20">
    <path d="M 275.129403 173.52 
L 275.129403 7.2 
" clip-path="url(#p18822e3054)" style="fill: none; stroke-dasharray: 1.85,0.8; stroke-dashoffset: 0; stroke: #808080; stroke-opacity: 0.3; stroke-width: 0.5"/>
   </g>
   <g id="line2d_21">
    <path d="M 298.802131 173.52 
L 298.802131 7.2 
" clip-path="url(#p18822e3054)" style="fill: none; stroke-dasharray: 1.85,0.8; stroke-dashoffset: 0; stroke: #808080; stroke-opacity: 0.3; stroke-width: 0.5"/>
   </g>
   <g id="line2d_22">
    <path d="M 322.474858 173.52 
L 322.474858 7.2 
" clip-path="url(#p18822e3054)" style="fill: none; stroke-dasharray: 1.85,0.8; stroke-dashoffset: 0; stroke: #808080; stroke-opacity: 0.3; stroke-width: 0.5"/>
   </g>
   <g id="line2d_23">
    <path d="M 346.147585 173.52 
L 346.147585 7.2 
" clip-path="url(#p18822e3054)" style="fill: none; stroke-dasharray: 1.85,0.8; stroke-dashoffset: 0; stroke: #808080; stroke-opacity: 0.3; stroke-width: 0.5"/>
   </g>
   <g id="line2d_24">
    <path d="M 369.820313 173.52 
L 369.820313 7.2 
" clip-path="url(#p18822e3054)" style="fill: none; stroke-dasharray: 1.85,0.8; stroke-dashoffset: 0; stroke: #808080; stroke-opacity: 0.3; stroke-width: 0.5"/>
   </g>
   <g id="line2d_25">
    <path d="M 393.49304 173.52 
L 393.49304 7.2 
" clip-path="url(#p18822e3054)" style="fill: none; stroke-dasharray: 1.85,0.8; stroke-dashoffset: 0; stroke: #808080; stroke-opacity: 0.3; stroke-width: 0.5"/>
   </g>
   <g id="line2d_26">
    <path d="M 417.165767 173.52 
L 417.165767 7.2 
" clip-path="url(#p18822e3054)" style="fill: none; stroke-dasharray: 1.85,0.8; stroke-dashoffset: 0; stroke: #808080; stroke-opacity: 0.3; stroke-width: 0.5"/>
   </g>
   <g id="LineCollection_1">
    <path d="M 70.360313 165.96 
L 70.360313 45.508632 
" clip-path="url(#p18822e3054)" style="fill: none; stroke: #00da69; stroke-width: 1.5"/>
    <path d="M 94.03304 105.456684 
L 94.03304 53.370581 
" clip-path="url(#p18822e3054)" style="fill: none; stroke: #00da69; stroke-width: 1.5"/>
    <path d="M 117.705767 90.239557 
L 117.705767 61.747098 
" clip-path="url(#p18822e3054)" style="fill: none; stroke: #00da69; stroke-width: 1.5"/>
    <path d="M 141.378494 101.197092 
L 141.378494 57.747019 
" clip-path="url(#p18822e3054)" style="fill: none; stroke: #00da69; stroke-width: 1.5"/>
    <path d="M 165.051222 92.77836 
L 165.051222 54.658024 
" clip-path="url(#p18822e3054)" style="fill: none; stroke: #00da69; stroke-width: 1.5"/>
    <path d="M 188.723949 92.23358 
L 188.723949 84.707756 
" clip-path="url(#p18822e3054)" style="fill: none; stroke: #00da69; stroke-width: 1.5"/>
    <path d="M 212.396676 90.008362 
L 212.396676 14.76 
" clip-path="url(#p18822e3054)" style="fill: none; stroke: #00da69; stroke-width: 1.5"/>
    <path clip-path="url(#p18822e3054)" style="fill: none; stroke: #00da69; stroke-width: 1.5"/>
    <path clip-path="url(#p18822e3054)" style="fill: none; stroke: #00da69; stroke-width: 1.5"/>
    <path d="M 283.414858 63.485463 
L 283.414858 60.123421 
" clip-path="url(#p18822e3054)" style="fill: none; stroke: #00da69; stroke-width: 1.5"/>
    <path d="M 307.087585 24.885054 
L 307.087585 24.885054 
" clip-path="url(#p18822e3054)" style="fill: none; stroke: #00da69; stroke-width: 1.5"/>
    <path d="M 330.760313 77.580664 
L 330.760313 77.580664 
" clip-path="url(#p18822e3054)" style="fill: none; stroke: #00da69; stroke-width: 1.5"/>
    <path clip-path="url(#p18822e3054)" style="fill: none; stroke: #00da69; stroke-width: 1.5"/>
    <path clip-path="url(#p18822e3054)" style="fill: none; stroke: #00da69; stroke-width: 1.5"/>
    <path clip-path="url(#p18822e3054)" style="fill: none; stroke: #00da69; stroke-width: 1.5"/>
   </g>
   <g id="line2d_27">
    <defs>
     <path id="m786706bfc3" d="M 5 0 
L -5 -0 
" style="stroke: #00da69"/>
    </defs>
    <g clip-path="url(#p18822e3054)">
     <use xlink:href="#m786706bfc3" x="70.360313" y="165.96" style="fill: #00da69; stroke: #00da69"/>
     <use xlink:href="#m786706bfc3" x="94.03304" y="105.456684" style="fill: #00da69; stroke: #00da69"/>
     <use xlink:href="#m786706bfc3" x="117.705767" y="90.239557" style="fill: #00da69; stroke: #00da69"/>
     <use xlink:href="#m786706bfc3" x="141.378494" y="101.197092" style="fill: #00da69; stroke: #00da69"/>
     <use xlink:href="#m786706bfc3" x="165.051222" y="92.77836" style="fill: #00da69; stroke: #00da69"/>
     <use xlink:href="#m786706bfc3" x="188.723949" y="92.23358" style="fill: #00da69; stroke: #00da69"/>
     <use xlink:href="#m786706bfc3" x="212.396676" y="90.008362" style="fill: #00da69; stroke: #00da69"/>
     <use xlink:href="#m786706bfc3" x="283.414858" y="63.485463" style="fill: #00da69; stroke: #00da69"/>
     <use xlink:href="#m786706bfc3" x="307.087585" y="24.885054" style="fill: #00da69; stroke: #00da69"/>
     <use xlink:href="#m786706bfc3" x="330.760313" y="77.580664" style="fill: #00da69; stroke: #00da69"/>
    </g>
   </g>
   <g id="line2d_28">
    <g clip-path="url(#p18822e3054)">
     <use xlink:href="#m786706bfc3" x="70.360313" y="45.508632" style="fill: #00da69; stroke: #00da69"/>
     <use xlink:href="#m786706bfc3" x="94.03304" y="53.370581" style="fill: #00da69; stroke: #00da69"/>
     <use xlink:href="#m786706bfc3" x="117.705767" y="61.747098" style="fill: #00da69; stroke: #00da69"/>
     <use xlink:href="#m786706bfc3" x="141.378494" y="57.747019" style="fill: #00da69; stroke: #00da69"/>
     <use xlink:href="#m786706bfc3" x="165.051222" y="54.658024" style="fill: #00da69; stroke: #00da69"/>
     <use xlink:href="#m786706bfc3" x="188.723949" y="84.707756" style="fill: #00da69; stroke: #00da69"/>
     <use xlink:href="#m786706bfc3" x="212.396676" y="14.76" style="fill: #00da69; stroke: #00da69"/>
     <use xlink:href="#m786706bfc3" x="283.414858" y="60.123421" style="fill: #00da69; stroke: #00da69"/>
     <use xlink:href="#m786706bfc3" x="307.087585" y="24.885054" style="fill: #00da69; stroke: #00da69"/>
     <use xlink:href="#m786706bfc3" x="330.760313" y="77.580664" style="fill: #00da69; stroke: #00da69"/>
    </g>
   </g>
   <g id="LineCollection_2">
    <path d="M 77.462131 162.616996 
L 77.462131 68.924887 
" clip-path="url(#p18822e3054)" style="fill: none; stroke: #ac3fff; stroke-width: 1.5"/>
    <path clip-path="url(#p18822e3054)" style="fill: none; stroke: #ac3fff; stroke-width: 1.5"/>
    <path clip-path="url(#p18822e3054)" style="fill: none; stroke: #ac3fff; stroke-width: 1.5"/>
    <path clip-path="url(#p18822e3054)" style="fill: none; stroke: #ac3fff; stroke-width: 1.5"/>
    <path clip-path="url(#p18822e3054)" style="fill: none; stroke: #ac3fff; stroke-width: 1.5"/>
    <path clip-path="url(#p18822e3054)" style="fill: none; stroke: #ac3fff; stroke-width: 1.5"/>
    <path clip-path="url(#p18822e3054)" style="fill: none; stroke: #ac3fff; stroke-width: 1.5"/>
    <path clip-path="url(#p18822e3054)" style="fill: none; stroke: #ac3fff; stroke-width: 1.5"/>
    <path clip-path="url(#p18822e3054)" style="fill: none; stroke: #ac3fff; stroke-width: 1.5"/>
    <path clip-path="url(#p18822e3054)" style="fill: none; stroke: #ac3fff; stroke-width: 1.5"/>
    <path clip-path="url(#p18822e3054)" style="fill: none; stroke: #ac3fff; stroke-width: 1.5"/>
    <path clip-path="url(#p18822e3054)" style="fill: none; stroke: #ac3fff; stroke-width: 1.5"/>
    <path clip-path="url(#p18822e3054)" style="fill: none; stroke: #ac3fff; stroke-width: 1.5"/>
    <path clip-path="url(#p18822e3054)" style="fill: none; stroke: #ac3fff; stroke-width: 1.5"/>
    <path clip-path="url(#p18822e3054)" style="fill: none; stroke: #ac3fff; stroke-width: 1.5"/>
   </g>
   <g id="line2d_29">
    <defs>
     <path id="m7ba8108612" d="M 5 0 
L -5 -0 
" style="stroke: #ac3fff"/>
    </defs>
    <g clip-path="url(#p18822e3054)">
     <use xlink:href="#m7ba8108612" x="77.462131" y="162.616996" style="fill: #ac3fff; stroke: #ac3fff"/>
    </g>
   </g>
   <g id="line2d_30">
    <g clip-path="url(#p18822e3054)">
     <use xlink:href="#m7ba8108612" x="77.462131" y="68.924887" style="fill: #ac3fff; stroke: #ac3fff"/>
    </g>
   </g>
   <g id="line2d_31">
    <defs>
     <path id="m915d871fc8" d="M 0 3 
C 0.795609 3 1.55874 2.683901 2.12132 2.12132 
C 2.683901 1.55874 3 0.795609 3 0 
C 3 -0.795609 2.683901 -1.55874 2.12132 -2.12132 
C 1.55874 -2.683901 0.795609 -3 0 -3 
C -0.795609 -3 -1.55874 -2.683901 -2.12132 -2.12132 
C -2.683901 -1.55874 -3 -0.795609 -3 0 
C -3 0.795609 -2.683901 1.55874 -2.12132 2.12132 
C -1.55874 2.683901 -0.795609 3 0 3 
z
" style="stroke: #00da69"/>
    </defs>
    <g clip-path="url(#p18822e3054)">
     <use xlink:href="#m915d871fc8" x="70.360313" y="88.595696" style="fill: #00da69; stroke: #00da69"/>
     <use xlink:href="#m915d871fc8" x="94.03304" y="80.470103" style="fill: #00da69; stroke: #00da69"/>
     <use xlink:href="#m915d871fc8" x="117.705767" y="77.858605" style="fill: #00da69; stroke: #00da69"/>
     <use xlink:href="#m915d871fc8" x="141.378494" y="75.018872" style="fill: #00da69; stroke: #00da69"/>
     <use xlink:href="#m915d871fc8" x="165.051222" y="75.116133" style="fill: #00da69; stroke: #00da69"/>
     <use xlink:href="#m915d871fc8" x="188.723949" y="87.538655" style="fill: #00da69; stroke: #00da69"/>
     <use xlink:href="#m915d871fc8" x="212.396676" y="61.24983" style="fill: #00da69; stroke: #00da69"/>
     <use xlink:href="#m915d871fc8" x="283.414858" y="61.804442" style="fill: #00da69; stroke: #00da69"/>
     <use xlink:href="#m915d871fc8" x="307.087585" y="24.885054" style="fill: #00da69; stroke: #00da69"/>
     <use xlink:href="#m915d871fc8" x="330.760313" y="77.580664" style="fill: #00da69; stroke: #00da69"/>
    </g>
   </g>
   <g id="line2d_32">
    <defs>
     <path id="m3bc8040472" d="M 0 3 
C 0.795609 3 1.55874 2.683901 2.12132 2.12132 
C 2.683901 1.55874 3 0.795609 3 0 
C 3 -0.795609 2.683901 -1.55874 2.12132 -2.12132 
C 1.55874 -2.683901 0.795609 -3 0 -3 
C -0.795609 -3 -1.55874 -2.683901 -2.12132 -2.12132 
C -2.683901 -1.55874 -3 -0.795609 -3 0 
C -3 0.795609 -2.683901 1.55874 -2.12132 2.12132 
C -1.55874 2.683901 -0.795609 3 0 3 
z
" style="stroke: #ac3fff"/>
    </defs>
    <g clip-path="url(#p18822e3054)">
     <use xlink:href="#m3bc8040472" x="77.462131" y="97.550608" style="fill: #ac3fff; stroke: #ac3fff"/>
    </g>
   </g>
   <g id="patch_5">
    <path d="M 44.320312 173.52 
L 44.320312 7.2 
" style="fill: none; stroke: #000000; stroke-width: 0.8; stroke-linejoin: miter; stroke-linecap: square"/>
   </g>
   <g id="patch_6">
    <path d="M 434.920313 173.52 
L 434.920313 7.2 
" style="fill: none; stroke: #000000; stroke-width: 0.8; stroke-linejoin: miter; stroke-linecap: square"/>
   </g>
   <g id="patch_7">
    <path d="M 44.320312 173.52 
L 434.920313 173.52 
" style="fill: none; stroke: #000000; stroke-width: 0.8; stroke-linejoin: miter; stroke-linecap: square"/>
   </g>
   <g id="patch_8">
    <path d="M 44.320312 7.2 
L 434.920313 7.2 
" style="fill: none; stroke: #000000; stroke-width: 0.8; stroke-linejoin: miter; stroke-linecap: square"/>
   </g>
   <g id="legend_1">
    <g id="patch_9">
     <path d="M 352.257812 43.88125 
L 427.920313 43.88125 
Q 429.920313 43.88125 429.920313 41.88125 
L 429.920313 14.2 
Q 429.920313 12.2 427.920313 12.2 
L 352.257812 12.2 
Q 350.257812 12.2 350.257812 14.2 
L 350.257812 41.88125 
Q 350.257812 43.88125 352.257812 43.88125 
z
" style="fill: #ffffff; opacity: 0.8; stroke: #cccccc; stroke-linejoin: miter"/>
    </g>
    <g id="LineCollection_3">
     <path d="M 364.257812 24.7 
L 364.257812 14.7 
" style="fill: none; stroke: #00da69; stroke-width: 1.5"/>
    </g>
    <g id="line2d_33">
     <g>
      <use xlink:href="#m786706bfc3" x="364.257812" y="24.7" style="fill: #00da69; stroke: #00da69"/>
     </g>
    </g>
    <g id="line2d_34">
     <g>
      <use xlink:href="#m786706bfc3" x="364.257812" y="14.7" style="fill: #00da69; stroke: #00da69"/>
     </g>
    </g>
    <g id="line2d_35"/>
    <g id="line2d_36">
     <g>
      <use xlink:href="#m915d871fc8" x="364.257812" y="19.7" style="fill: #00da69; stroke: #00da69"/>
     </g>
    </g>
    <g id="text_13">
     <!-- z3str3 -->
     <g transform="translate(382.257812 23.2) scale(0.1 -0.1)">
      <defs>
       <path id="LibertinusSerif-Regular-7a" d="M 454 2810 
C 442 2810 416 2784 416 2771 
C 410 2483 378 2259 320 1946 
C 378 1920 454 1907 531 1926 
C 659 2394 858 2502 1050 2509 
L 1869 2528 
C 1434 1798 794 877 294 205 
C 237 128 237 109 237 77 
C 237 32 288 0 384 0 
L 2381 -19 
C 2458 198 2541 531 2586 851 
C 2547 877 2470 890 2394 890 
L 2304 704 
C 2144 365 2010 224 1677 218 
L 826 218 
C 1299 819 1965 1824 2362 2477 
C 2458 2637 2477 2688 2477 2714 
C 2477 2739 2445 2758 2400 2758 
C 2368 2758 2189 2746 2003 2746 
L 832 2746 
C 627 2746 550 2778 454 2810 
z
" transform="scale(0.015625)"/>
      </defs>
      <use xlink:href="#LibertinusSerif-Regular-7a"/>
      <use xlink:href="#LibertinusSerif-Regular-33" transform="translate(42.399994 0)"/>
      <use xlink:href="#LibertinusSerif-Regular-73" transform="translate(88.899979 0)"/>
      <use xlink:href="#LibertinusSerif-Regular-74" transform="translate(127.899963 0)"/>
      <use xlink:href="#LibertinusSerif-Regular-72" transform="translate(159.499954 0)"/>
      <use xlink:href="#LibertinusSerif-Regular-33" transform="translate(196.699951 0)"/>
     </g>
    </g>
    <g id="LineCollection_4">
     <path d="M 364.257812 39.040625 
L 364.257812 29.040625 
" style="fill: none; stroke: #ac3fff; stroke-width: 1.5"/>
    </g>
    <g id="line2d_37">
     <g>
      <use xlink:href="#m7ba8108612" x="364.257812" y="39.040625" style="fill: #ac3fff; stroke: #ac3fff"/>
     </g>
    </g>
    <g id="line2d_38">
     <g>
      <use xlink:href="#m7ba8108612" x="364.257812" y="29.040625" style="fill: #ac3fff; stroke: #ac3fff"/>
     </g>
    </g>
    <g id="line2d_39"/>
    <g id="line2d_40">
     <g>
      <use xlink:href="#m3bc8040472" x="364.257812" y="34.040625" style="fill: #ac3fff; stroke: #ac3fff"/>
     </g>
    </g>
    <g id="text_14">
     <!-- z3-noodler -->
     <g transform="translate(382.257812 37.540625) scale(0.1 -0.1)">
      <defs>
       <path id="LibertinusSerif-Regular-2d" d="M 1734 1427 
C 1818 1427 1907 1606 1907 1683 
C 1907 1747 1882 1811 1818 1811 
L 416 1811 
C 339 1811 256 1664 256 1549 
C 256 1485 294 1427 352 1427 
L 1734 1427 
z
" transform="scale(0.015625)"/>
      </defs>
      <use xlink:href="#LibertinusSerif-Regular-7a"/>
      <use xlink:href="#LibertinusSerif-Regular-33" transform="translate(42.399994 0)"/>
      <use xlink:href="#LibertinusSerif-Regular-2d" transform="translate(88.899979 0)"/>
      <use xlink:href="#LibertinusSerif-Regular-6e" transform="translate(122.699966 0)"/>
      <use xlink:href="#LibertinusSerif-Regular-6f" transform="translate(176.899963 0)"/>
      <use xlink:href="#LibertinusSerif-Regular-6f" transform="translate(227.299957 0)"/>
      <use xlink:href="#LibertinusSerif-Regular-64" transform="translate(277.699951 0)"/>
      <use xlink:href="#LibertinusSerif-Regular-6c" transform="translate(328.299942 0)"/>
      <use xlink:href="#LibertinusSerif-Regular-65" transform="translate(354.699936 0)"/>
      <use xlink:href="#LibertinusSerif-Regular-72" transform="translate(399.399933 0)"/>
     </g>
    </g>
   </g>
  </g>
 </g>
 <defs>
  <clipPath id="p18822e3054">
   <rect x="44.320312" y="7.2" width="390.6" height="166.32"/>
  </clipPath>
 </defs>
</svg>
