<?xml version="1.0" encoding="utf-8" standalone="no"?>
<!DOCTYPE svg PUBLIC "-//W3C//DTD SVG 1.1//EN"
  "http://www.w3.org/Graphics/SVG/1.1/DTD/svg11.dtd">
<svg xmlns:xlink="http://www.w3.org/1999/xlink" width="460.8pt" height="345.6pt" viewBox="0 0 460.8 345.6" xmlns="http://www.w3.org/2000/svg" version="1.1">
 <metadata>
  <rdf:RDF xmlns:dc="http://purl.org/dc/elements/1.1/" xmlns:cc="http://creativecommons.org/ns#" xmlns:rdf="http://www.w3.org/1999/02/22-rdf-syntax-ns#">
   <cc:Work>
    <dc:type rdf:resource="http://purl.org/dc/dcmitype/StillImage"/>
    <dc:date>1980-01-01T00:00:00+00:00</dc:date>
    <dc:format>image/svg+xml</dc:format>
    <dc:creator>
     <cc:Agent>
      <dc:title>Matplotlib v3.10.3, https://matplotlib.org/</dc:title>
     </cc:Agent>
    </dc:creator>
   </cc:Work>
  </rdf:RDF>
 </metadata>
 <defs>
  <style type="text/css">*{stroke-linejoin: round; stroke-linecap: butt}</style>
 </defs>
 <g id="figure_1">
  <g id="patch_1">
   <path d="M 0 345.6 
L 460.8 345.6 
L 460.8 0 
L 0 0 
z
" style="fill: #ffffff"/>
  </g>
  <g id="axes_1">
   <g id="patch_2">
    <path d="M 57.6 307.584 
L 414.72 307.584 
L 414.72 41.472 
L 57.6 41.472 
z
" style="fill: #ffffff"/>
   </g>
   <g id="patch_3">
    <path d="M 73.832727 307.584 
L 84.654545 307.584 
L 84.654545 294.414065 
L 73.832727 294.414065 
z
" clip-path="url(#p60bd7aae7b)" style="fill: #0000ff; opacity: 0.7; stroke: #000000; stroke-linejoin: miter"/>
   </g>
   <g id="patch_4">
    <path d="M 84.654545 307.584 
L 95.476364 307.584 
L 95.476364 289.440711 
L 84.654545 289.440711 
z
" clip-path="url(#p60bd7aae7b)" style="fill: #0000ff; opacity: 0.7; stroke: #000000; stroke-linejoin: miter"/>
   </g>
   <g id="patch_5">
    <path d="M 95.476364 307.584 
L 106.298182 307.584 
L 106.298182 277.982373 
L 95.476364 277.982373 
z
" clip-path="url(#p60bd7aae7b)" style="fill: #0000ff; opacity: 0.7; stroke: #000000; stroke-linejoin: miter"/>
   </g>
   <g id="patch_6">
    <path d="M 106.298182 307.584 
L 117.12 307.584 
L 117.12 278.107553 
L 106.298182 278.107553 
z
" clip-path="url(#p60bd7aae7b)" style="fill: #0000ff; opacity: 0.7; stroke: #000000; stroke-linejoin: miter"/>
   </g>
   <g id="patch_7">
    <path d="M 117.12 307.584 
L 127.941818 307.584 
L 127.941818 290.209329 
L 117.12 290.209329 
z
" clip-path="url(#p60bd7aae7b)" style="fill: #0000ff; opacity: 0.7; stroke: #000000; stroke-linejoin: miter"/>
   </g>
   <g id="patch_8">
    <path d="M 127.941818 307.584 
L 138.763636 307.584 
L 138.763636 286.370764 
L 127.941818 286.370764 
z
" clip-path="url(#p60bd7aae7b)" style="fill: #0000ff; opacity: 0.7; stroke: #000000; stroke-linejoin: miter"/>
   </g>
   <g id="patch_9">
    <path d="M 138.763636 307.584 
L 149.585455 307.584 
L 149.585455 277.23379 
L 138.763636 277.23379 
z
" clip-path="url(#p60bd7aae7b)" style="fill: #0000ff; opacity: 0.7; stroke: #000000; stroke-linejoin: miter"/>
   </g>
   <g id="patch_10">
    <path d="M 149.585455 307.584 
L 160.407273 307.584 
L 160.407273 283.481756 
L 149.585455 283.481756 
z
" clip-path="url(#p60bd7aae7b)" style="fill: #0000ff; opacity: 0.7; stroke: #000000; stroke-linejoin: miter"/>
   </g>
   <g id="patch_11">
    <path d="M 160.407273 307.584 
L 171.229091 307.584 
L 171.229091 282.367762 
L 160.407273 282.367762 
z
" clip-path="url(#p60bd7aae7b)" style="fill: #0000ff; opacity: 0.7; stroke: #000000; stroke-linejoin: miter"/>
   </g>
   <g id="patch_12">
    <path d="M 171.229091 307.584 
L 182.050909 307.584 
L 182.050909 282.969817 
L 171.229091 282.969817 
z
" clip-path="url(#p60bd7aae7b)" style="fill: #0000ff; opacity: 0.7; stroke: #000000; stroke-linejoin: miter"/>
   </g>
   <g id="patch_13">
    <path d="M 182.050909 307.584 
L 192.872727 307.584 
L 192.872727 288.523076 
L 182.050909 288.523076 
z
" clip-path="url(#p60bd7aae7b)" style="fill: #0000ff; opacity: 0.7; stroke: #000000; stroke-linejoin: miter"/>
   </g>
   <g id="patch_14">
    <path d="M 192.872727 307.584 
L 203.694545 307.584 
L 203.694545 289.101594 
L 192.872727 289.101594 
z
" clip-path="url(#p60bd7aae7b)" style="fill: #0000ff; opacity: 0.7; stroke: #000000; stroke-linejoin: miter"/>
   </g>
   <g id="patch_15">
    <path d="M 203.694545 307.584 
L 214.516364 307.584 
L 214.516364 271.57982 
L 203.694545 271.57982 
z
" clip-path="url(#p60bd7aae7b)" style="fill: #0000ff; opacity: 0.7; stroke: #000000; stroke-linejoin: miter"/>
   </g>
   <g id="patch_16">
    <path d="M 214.516364 307.584 
L 225.338182 307.584 
L 225.338182 268.417901 
L 214.516364 268.417901 
z
" clip-path="url(#p60bd7aae7b)" style="fill: #0000ff; opacity: 0.7; stroke: #000000; stroke-linejoin: miter"/>
   </g>
   <g id="patch_17">
    <path d="M 225.338182 307.584 
L 236.16 307.584 
L 236.16 248.205915 
L 225.338182 248.205915 
z
" clip-path="url(#p60bd7aae7b)" style="fill: #0000ff; opacity: 0.7; stroke: #000000; stroke-linejoin: miter"/>
   </g>
   <g id="patch_18">
    <path d="M 236.16 307.584 
L 246.981818 307.584 
L 246.981818 247.397074 
L 236.16 247.397074 
z
" clip-path="url(#p60bd7aae7b)" style="fill: #0000ff; opacity: 0.7; stroke: #000000; stroke-linejoin: miter"/>
   </g>
   <g id="patch_19">
    <path d="M 246.981818 307.584 
L 257.803636 307.584 
L 257.803636 275.489476 
L 246.981818 275.489476 
z
" clip-path="url(#p60bd7aae7b)" style="fill: #0000ff; opacity: 0.7; stroke: #000000; stroke-linejoin: miter"/>
   </g>
   <g id="patch_20">
    <path d="M 257.803636 307.584 
L 268.625455 307.584 
L 268.625455 258.621377 
L 257.803636 258.621377 
z
" clip-path="url(#p60bd7aae7b)" style="fill: #0000ff; opacity: 0.7; stroke: #000000; stroke-linejoin: miter"/>
   </g>
   <g id="patch_21">
    <path d="M 268.625455 307.584 
L 279.447273 307.584 
L 279.447273 262.09464 
L 268.625455 262.09464 
z
" clip-path="url(#p60bd7aae7b)" style="fill: #0000ff; opacity: 0.7; stroke: #000000; stroke-linejoin: miter"/>
   </g>
   <g id="patch_22">
    <path d="M 279.447273 307.584 
L 290.269091 307.584 
L 290.269091 267.626235 
L 279.447273 267.626235 
z
" clip-path="url(#p60bd7aae7b)" style="fill: #0000ff; opacity: 0.7; stroke: #000000; stroke-linejoin: miter"/>
   </g>
   <g id="patch_23">
    <path d="M 290.269091 307.584 
L 301.090909 307.584 
L 301.090909 273.353062 
L 290.269091 273.353062 
z
" clip-path="url(#p60bd7aae7b)" style="fill: #0000ff; opacity: 0.7; stroke: #000000; stroke-linejoin: miter"/>
   </g>
   <g id="patch_24">
    <path d="M 301.090909 307.584 
L 311.912727 307.584 
L 311.912727 257.17732 
L 301.090909 257.17732 
z
" clip-path="url(#p60bd7aae7b)" style="fill: #0000ff; opacity: 0.7; stroke: #000000; stroke-linejoin: miter"/>
   </g>
   <g id="patch_25">
    <path d="M 311.912727 307.584 
L 322.734545 307.584 
L 322.734545 279.027905 
L 311.912727 279.027905 
z
" clip-path="url(#p60bd7aae7b)" style="fill: #0000ff; opacity: 0.7; stroke: #000000; stroke-linejoin: miter"/>
   </g>
   <g id="patch_26">
    <path d="M 322.734545 307.584 
L 333.556364 307.584 
L 333.556364 274.397222 
L 322.734545 274.397222 
z
" clip-path="url(#p60bd7aae7b)" style="fill: #0000ff; opacity: 0.7; stroke: #000000; stroke-linejoin: miter"/>
   </g>
   <g id="patch_27">
    <path d="M 333.556364 307.584 
L 344.378182 307.584 
L 344.378182 251.122966 
L 333.556364 251.122966 
z
" clip-path="url(#p60bd7aae7b)" style="fill: #0000ff; opacity: 0.7; stroke: #000000; stroke-linejoin: miter"/>
   </g>
   <g id="patch_28">
    <path d="M 344.378182 307.584 
L 355.2 307.584 
L 355.2 265.408818 
L 344.378182 265.408818 
z
" clip-path="url(#p60bd7aae7b)" style="fill: #0000ff; opacity: 0.7; stroke: #000000; stroke-linejoin: miter"/>
   </g>
   <g id="patch_29">
    <path d="M 355.2 307.584 
L 366.021818 307.584 
L 366.021818 252.963931 
L 355.2 252.963931 
z
" clip-path="url(#p60bd7aae7b)" style="fill: #0000ff; opacity: 0.7; stroke: #000000; stroke-linejoin: miter"/>
   </g>
   <g id="patch_30">
    <path clip-path="url(#p60bd7aae7b)" style="fill: #0000ff; opacity: 0.7; stroke: #000000; stroke-linejoin: miter"/>
   </g>
   <g id="patch_31">
    <path d="M 376.843636 307.584 
L 387.665455 307.584 
L 387.665455 175.094294 
L 376.843636 175.094294 
z
" clip-path="url(#p60bd7aae7b)" style="fill: #0000ff; opacity: 0.7; stroke: #000000; stroke-linejoin: miter"/>
   </g>
   <g id="patch_32">
    <path d="M 387.665455 307.584 
L 398.487273 307.584 
L 398.487273 266.530811 
L 387.665455 266.530811 
z
" clip-path="url(#p60bd7aae7b)" style="fill: #0000ff; opacity: 0.7; stroke: #000000; stroke-linejoin: miter"/>
   </g>
   <g id="patch_33">
    <path d="M 73.832727 307.584 
L 84.654545 307.584 
L 84.654545 298.2144 
L 73.832727 298.2144 
z
" clip-path="url(#p60bd7aae7b)" style="fill: #ff0000; opacity: 0.7; stroke: #000000; stroke-linejoin: miter"/>
   </g>
   <g id="patch_34">
    <path d="M 84.654545 307.584 
L 95.476364 307.584 
L 95.476364 292.626081 
L 84.654545 292.626081 
z
" clip-path="url(#p60bd7aae7b)" style="fill: #ff0000; opacity: 0.7; stroke: #000000; stroke-linejoin: miter"/>
   </g>
   <g id="patch_35">
    <path d="M 95.476364 307.584 
L 106.298182 307.584 
L 106.298182 290.250272 
L 95.476364 290.250272 
z
" clip-path="url(#p60bd7aae7b)" style="fill: #ff0000; opacity: 0.7; stroke: #000000; stroke-linejoin: miter"/>
   </g>
   <g id="patch_36">
    <path d="M 106.298182 307.584 
L 117.12 307.584 
L 117.12 289.851642 
L 106.298182 289.851642 
z
" clip-path="url(#p60bd7aae7b)" style="fill: #ff0000; opacity: 0.7; stroke: #000000; stroke-linejoin: miter"/>
   </g>
   <g id="patch_37">
    <path d="M 117.12 307.584 
L 127.941818 307.584 
L 127.941818 287.059775 
L 117.12 287.059775 
z
" clip-path="url(#p60bd7aae7b)" style="fill: #ff0000; opacity: 0.7; stroke: #000000; stroke-linejoin: miter"/>
   </g>
   <g id="patch_38">
    <path d="M 127.941818 307.584 
L 138.763636 307.584 
L 138.763636 287.544891 
L 127.941818 287.544891 
z
" clip-path="url(#p60bd7aae7b)" style="fill: #ff0000; opacity: 0.7; stroke: #000000; stroke-linejoin: miter"/>
   </g>
   <g id="patch_39">
    <path d="M 138.763636 307.584 
L 149.585455 307.584 
L 149.585455 285.21767 
L 138.763636 285.21767 
z
" clip-path="url(#p60bd7aae7b)" style="fill: #ff0000; opacity: 0.7; stroke: #000000; stroke-linejoin: miter"/>
   </g>
   <g id="patch_40">
    <path d="M 149.585455 307.584 
L 160.407273 307.584 
L 160.407273 285.005408 
L 149.585455 285.005408 
z
" clip-path="url(#p60bd7aae7b)" style="fill: #ff0000; opacity: 0.7; stroke: #000000; stroke-linejoin: miter"/>
   </g>
   <g id="patch_41">
    <path d="M 160.407273 307.584 
L 171.229091 307.584 
L 171.229091 286.014374 
L 160.407273 286.014374 
z
" clip-path="url(#p60bd7aae7b)" style="fill: #ff0000; opacity: 0.7; stroke: #000000; stroke-linejoin: miter"/>
   </g>
   <g id="patch_42">
    <path d="M 171.229091 307.584 
L 182.050909 307.584 
L 182.050909 287.390072 
L 171.229091 287.390072 
z
" clip-path="url(#p60bd7aae7b)" style="fill: #ff0000; opacity: 0.7; stroke: #000000; stroke-linejoin: miter"/>
   </g>
   <g id="patch_43">
    <path d="M 182.050909 307.584 
L 192.872727 307.584 
L 192.872727 281.882649 
L 182.050909 281.882649 
z
" clip-path="url(#p60bd7aae7b)" style="fill: #ff0000; opacity: 0.7; stroke: #000000; stroke-linejoin: miter"/>
   </g>
   <g id="patch_44">
    <path d="M 192.872727 307.584 
L 203.694545 307.584 
L 203.694545 281.587659 
L 192.872727 281.587659 
z
" clip-path="url(#p60bd7aae7b)" style="fill: #ff0000; opacity: 0.7; stroke: #000000; stroke-linejoin: miter"/>
   </g>
   <g id="patch_45">
    <path d="M 203.694545 307.584 
L 214.516364 307.584 
L 214.516364 274.191413 
L 203.694545 274.191413 
z
" clip-path="url(#p60bd7aae7b)" style="fill: #ff0000; opacity: 0.7; stroke: #000000; stroke-linejoin: miter"/>
   </g>
   <g id="patch_46">
    <path d="M 214.516364 307.584 
L 225.338182 307.584 
L 225.338182 282.686192 
L 214.516364 282.686192 
z
" clip-path="url(#p60bd7aae7b)" style="fill: #ff0000; opacity: 0.7; stroke: #000000; stroke-linejoin: miter"/>
   </g>
   <g id="patch_47">
    <path d="M 225.338182 307.584 
L 236.16 307.584 
L 236.16 245.790019 
L 225.338182 245.790019 
z
" clip-path="url(#p60bd7aae7b)" style="fill: #ff0000; opacity: 0.7; stroke: #000000; stroke-linejoin: miter"/>
   </g>
   <g id="patch_48">
    <path d="M 236.16 307.584 
L 246.981818 307.584 
L 246.981818 278.392746 
L 236.16 278.392746 
z
" clip-path="url(#p60bd7aae7b)" style="fill: #ff0000; opacity: 0.7; stroke: #000000; stroke-linejoin: miter"/>
   </g>
   <g id="patch_49">
    <path d="M 246.981818 307.584 
L 257.803636 307.584 
L 257.803636 281.877998 
L 246.981818 281.877998 
z
" clip-path="url(#p60bd7aae7b)" style="fill: #ff0000; opacity: 0.7; stroke: #000000; stroke-linejoin: miter"/>
   </g>
   <g id="patch_50">
    <path d="M 257.803636 307.584 
L 268.625455 307.584 
L 268.625455 54.144 
L 257.803636 54.144 
z
" clip-path="url(#p60bd7aae7b)" style="fill: #ff0000; opacity: 0.7; stroke: #000000; stroke-linejoin: miter"/>
   </g>
   <g id="patch_51">
    <path d="M 268.625455 307.584 
L 279.447273 307.584 
L 279.447273 285.899376 
L 268.625455 285.899376 
z
" clip-path="url(#p60bd7aae7b)" style="fill: #ff0000; opacity: 0.7; stroke: #000000; stroke-linejoin: miter"/>
   </g>
   <g id="patch_52">
    <path d="M 279.447273 307.584 
L 290.269091 307.584 
L 290.269091 229.26228 
L 279.447273 229.26228 
z
" clip-path="url(#p60bd7aae7b)" style="fill: #ff0000; opacity: 0.7; stroke: #000000; stroke-linejoin: miter"/>
   </g>
   <g id="patch_53">
    <path d="M 290.269091 307.584 
L 301.090909 307.584 
L 301.090909 290.005012 
L 290.269091 290.005012 
z
" clip-path="url(#p60bd7aae7b)" style="fill: #ff0000; opacity: 0.7; stroke: #000000; stroke-linejoin: miter"/>
   </g>
   <g id="patch_54">
    <path d="M 301.090909 307.584 
L 311.912727 307.584 
L 311.912727 273.206788 
L 301.090909 273.206788 
z
" clip-path="url(#p60bd7aae7b)" style="fill: #ff0000; opacity: 0.7; stroke: #000000; stroke-linejoin: miter"/>
   </g>
   <g id="patch_55">
    <path d="M 311.912727 307.584 
L 322.734545 307.584 
L 322.734545 270.142485 
L 311.912727 270.142485 
z
" clip-path="url(#p60bd7aae7b)" style="fill: #ff0000; opacity: 0.7; stroke: #000000; stroke-linejoin: miter"/>
   </g>
   <g id="patch_56">
    <path d="M 322.734545 307.584 
L 333.556364 307.584 
L 333.556364 287.172799 
L 322.734545 287.172799 
z
" clip-path="url(#p60bd7aae7b)" style="fill: #ff0000; opacity: 0.7; stroke: #000000; stroke-linejoin: miter"/>
   </g>
   <g id="patch_57">
    <path d="M 333.556364 307.584 
L 344.378182 307.584 
L 344.378182 288.186051 
L 333.556364 288.186051 
z
" clip-path="url(#p60bd7aae7b)" style="fill: #ff0000; opacity: 0.7; stroke: #000000; stroke-linejoin: miter"/>
   </g>
   <g id="patch_58">
    <path d="M 344.378182 307.584 
L 355.2 307.584 
L 355.2 288.213034 
L 344.378182 288.213034 
z
" clip-path="url(#p60bd7aae7b)" style="fill: #ff0000; opacity: 0.7; stroke: #000000; stroke-linejoin: miter"/>
   </g>
   <g id="patch_59">
    <path d="M 355.2 307.584 
L 366.021818 307.584 
L 366.021818 288.009306 
L 355.2 288.009306 
z
" clip-path="url(#p60bd7aae7b)" style="fill: #ff0000; opacity: 0.7; stroke: #000000; stroke-linejoin: miter"/>
   </g>
   <g id="patch_60">
    <path d="M 366.021818 307.584 
L 376.843636 307.584 
L 376.843636 254.648643 
L 366.021818 254.648643 
z
" clip-path="url(#p60bd7aae7b)" style="fill: #ff0000; opacity: 0.7; stroke: #000000; stroke-linejoin: miter"/>
   </g>
   <g id="patch_61">
    <path clip-path="url(#p60bd7aae7b)" style="fill: #ff0000; opacity: 0.7; stroke: #000000; stroke-linejoin: miter"/>
   </g>
   <g id="patch_62">
    <path clip-path="url(#p60bd7aae7b)" style="fill: #ff0000; opacity: 0.7; stroke: #000000; stroke-linejoin: miter"/>
   </g>
   <g id="matplotlib.axis_1">
    <g id="xtick_1">
     <g id="line2d_1">
      <defs>
       <path id="m14d1bc8135" d="M 0 0 
L 0 3.5 
" style="stroke: #000000; stroke-width: 0.8"/>
      </defs>
      <g>
       <use xlink:href="#m14d1bc8135" x="59.743646" y="307.584" style="stroke: #000000; stroke-width: 0.8"/>
      </g>
     </g>
     <g id="text_1">
      <!-- $\mathdefault{10^{-1}}$ -->
      <g transform="translate(51.393646 321.563687) scale(0.1 -0.1)">
       <defs>
        <path id="LibertinusSerif-Regular-31" d="M 1843 781 
L 1843 3002 
C 1843 3386 1850 3776 1862 3859 
C 1862 3891 1850 3891 1824 3891 
C 1472 3674 1133 3514 570 3251 
C 582 3181 608 3117 666 3078 
C 960 3200 1101 3238 1222 3238 
C 1331 3238 1350 3085 1350 2867 
L 1350 781 
C 1350 250 1178 218 730 198 
C 691 160 691 26 730 -13 
C 1043 -6 1274 0 1619 0 
C 1926 0 2080 -6 2400 -13 
C 2438 26 2438 160 2400 198 
C 1952 218 1843 250 1843 781 
z
" transform="scale(0.015625)"/>
        <path id="LibertinusSerif-Regular-30" d="M 1459 -64 
C 1952 -64 2701 435 2701 1939 
C 2701 2573 2547 3117 2266 3488 
C 2099 3712 1830 3904 1485 3904 
C 851 3904 250 3149 250 1882 
C 250 1197 461 557 813 205 
C 992 26 1210 -64 1459 -64 
z
M 1485 3680 
C 1594 3680 1696 3642 1773 3571 
C 1971 3405 2144 2918 2144 2061 
C 2144 1472 2125 1069 2035 742 
C 1894 218 1581 160 1466 160 
C 870 160 806 1254 806 1811 
C 806 3386 1197 3680 1485 3680 
z
" transform="scale(0.015625)"/>
        <path id="LibertinusSerif-Regular-2212" d="M 2963 1446 
C 3046 1446 3136 1594 3136 1658 
C 3136 1709 3110 1766 3046 1766 
L 544 1766 
C 467 1766 384 1645 384 1549 
C 384 1498 422 1446 480 1446 
L 2963 1446 
z
" transform="scale(0.015625)"/>
       </defs>
       <use xlink:href="#LibertinusSerif-Regular-31" transform="translate(0 0.276563)"/>
       <use xlink:href="#LibertinusSerif-Regular-30" transform="translate(46.499985 0.276563)"/>
       <use xlink:href="#LibertinusSerif-Regular-2212" transform="translate(93.75411 30.442188) scale(0.7)"/>
       <use xlink:href="#LibertinusSerif-Regular-31" transform="translate(132.254099 30.442188) scale(0.7)"/>
      </g>
     </g>
    </g>
    <g id="xtick_2">
     <g id="line2d_2">
      <g>
       <use xlink:href="#m14d1bc8135" x="116.870257" y="307.584" style="stroke: #000000; stroke-width: 0.8"/>
      </g>
     </g>
     <g id="text_2">
      <!-- $\mathdefault{10^{0}}$ -->
      <g transform="translate(110.420257 321.563687) scale(0.1 -0.1)">
       <use xlink:href="#LibertinusSerif-Regular-31" transform="translate(0 0.134375)"/>
       <use xlink:href="#LibertinusSerif-Regular-30" transform="translate(46.499985 0.134375)"/>
       <use xlink:href="#LibertinusSerif-Regular-30" transform="translate(93.75411 30.3) scale(0.7)"/>
      </g>
     </g>
    </g>
    <g id="xtick_3">
     <g id="line2d_3">
      <g>
       <use xlink:href="#m14d1bc8135" x="173.996868" y="307.584" style="stroke: #000000; stroke-width: 0.8"/>
      </g>
     </g>
     <g id="text_3">
      <!-- $\mathdefault{10^{1}}$ -->
      <g transform="translate(167.546868 321.563687) scale(0.1 -0.1)">
       <use xlink:href="#LibertinusSerif-Regular-31" transform="translate(0 0.276563)"/>
       <use xlink:href="#LibertinusSerif-Regular-30" transform="translate(46.499985 0.276563)"/>
       <use xlink:href="#LibertinusSerif-Regular-31" transform="translate(93.75411 30.442188) scale(0.7)"/>
      </g>
     </g>
    </g>
    <g id="xtick_4">
     <g id="line2d_4">
      <g>
       <use xlink:href="#m14d1bc8135" x="231.12348" y="307.584" style="stroke: #000000; stroke-width: 0.8"/>
      </g>
     </g>
     <g id="text_4">
      <!-- $\mathdefault{10^{2}}$ -->
      <g transform="translate(224.67348 321.563687) scale(0.1 -0.1)">
       <defs>
        <path id="LibertinusSerif-Regular-32" d="M 390 2995 
C 390 2861 512 2746 646 2746 
C 755 2746 947 2861 947 3002 
C 947 3053 934 3091 922 3136 
C 909 3181 870 3238 870 3290 
C 870 3450 1037 3680 1504 3680 
C 1734 3680 2061 3520 2061 2906 
C 2061 2496 1914 2163 1536 1779 
L 1062 1312 
C 435 672 333 365 333 -13 
C 333 -13 659 0 864 0 
L 1984 0 
C 2189 0 2483 -13 2483 -13 
C 2566 326 2630 806 2637 998 
C 2598 1030 2515 1043 2451 1030 
C 2342 576 2234 416 2003 416 
L 864 416 
C 864 723 1306 1158 1338 1190 
L 1984 1811 
C 2349 2163 2624 2445 2624 2931 
C 2624 3622 2061 3904 1542 3904 
C 832 3904 390 3379 390 2995 
z
" transform="scale(0.015625)"/>
       </defs>
       <use xlink:href="#LibertinusSerif-Regular-31" transform="translate(0 0.134375)"/>
       <use xlink:href="#LibertinusSerif-Regular-30" transform="translate(46.499985 0.134375)"/>
       <use xlink:href="#LibertinusSerif-Regular-32" transform="translate(93.75411 30.3) scale(0.7)"/>
      </g>
     </g>
    </g>
    <g id="xtick_5">
     <g id="line2d_5">
      <g>
       <use xlink:href="#m14d1bc8135" x="288.250091" y="307.584" style="stroke: #000000; stroke-width: 0.8"/>
      </g>
     </g>
     <g id="text_5">
      <!-- $\mathdefault{10^{3}}$ -->
      <g transform="translate(281.800091 321.563687) scale(0.1 -0.1)">
       <defs>
        <path id="LibertinusSerif-Regular-33" d="M 1376 3680 
C 1651 3680 1907 3514 1907 3104 
C 1907 2784 1536 2291 902 2202 
L 934 1997 
C 1043 2010 1158 2010 1242 2010 
C 1606 2010 2080 1907 2080 1184 
C 2080 333 1510 160 1286 160 
C 960 160 902 307 826 422 
C 762 512 678 589 550 589 
C 416 589 282 467 282 365 
C 282 109 819 -64 1203 -64 
C 1965 -64 2643 429 2643 1274 
C 2643 1971 2118 2221 1741 2285 
L 1734 2298 
C 2259 2547 2406 2810 2406 3149 
C 2406 3341 2362 3494 2208 3654 
C 2067 3795 1843 3904 1510 3904 
C 570 3904 301 3290 301 3078 
C 301 2989 365 2861 518 2861 
C 742 2861 768 3072 768 3194 
C 768 3603 1210 3680 1376 3680 
z
" transform="scale(0.015625)"/>
       </defs>
       <use xlink:href="#LibertinusSerif-Regular-31" transform="translate(0 0.134375)"/>
       <use xlink:href="#LibertinusSerif-Regular-30" transform="translate(46.499985 0.134375)"/>
       <use xlink:href="#LibertinusSerif-Regular-33" transform="translate(93.75411 30.3) scale(0.7)"/>
      </g>
     </g>
    </g>
    <g id="xtick_6">
     <g id="line2d_6">
      <g>
       <use xlink:href="#m14d1bc8135" x="345.376702" y="307.584" style="stroke: #000000; stroke-width: 0.8"/>
      </g>
     </g>
     <g id="text_6">
      <!-- $\mathdefault{10^{4}}$ -->
      <g transform="translate(338.926702 321.563687) scale(0.1 -0.1)">
       <defs>
        <path id="LibertinusSerif-Regular-34" d="M 2752 1402 
L 2221 1402 
L 2221 3270 
C 2221 3590 2221 3840 2234 3891 
L 2221 3904 
L 2016 3904 
C 1971 3904 1939 3866 1914 3834 
C 1510 3341 768 2285 179 1370 
C 198 1274 237 1101 429 1101 
L 1734 1101 
L 1734 512 
C 1734 218 1491 218 1216 198 
C 1178 160 1178 26 1216 -13 
C 1421 -6 1677 0 1971 0 
C 2221 0 2464 -6 2669 -13 
C 2707 26 2707 160 2669 198 
C 2355 224 2221 211 2221 512 
L 2221 1101 
L 2662 1101 
C 2752 1101 2848 1222 2848 1299 
C 2848 1363 2822 1402 2752 1402 
z
M 1734 3245 
L 1734 1402 
L 512 1402 
C 838 1926 1293 2643 1734 3245 
z
" transform="scale(0.015625)"/>
       </defs>
       <use xlink:href="#LibertinusSerif-Regular-31" transform="translate(0 0.134375)"/>
       <use xlink:href="#LibertinusSerif-Regular-30" transform="translate(46.499985 0.134375)"/>
       <use xlink:href="#LibertinusSerif-Regular-34" transform="translate(93.75411 30.3) scale(0.7)"/>
      </g>
     </g>
    </g>
    <g id="xtick_7">
     <g id="line2d_7">
      <g>
       <use xlink:href="#m14d1bc8135" x="402.503313" y="307.584" style="stroke: #000000; stroke-width: 0.8"/>
      </g>
     </g>
     <g id="text_7">
      <!-- $\mathdefault{10^{5}}$ -->
      <g transform="translate(396.053313 321.563687) scale(0.1 -0.1)">
       <defs>
        <path id="LibertinusSerif-Regular-35" d="M 2042 1210 
C 2042 602 1722 154 1338 154 
C 1094 154 1011 314 915 442 
C 832 550 723 646 589 646 
C 467 646 346 538 346 410 
C 346 147 890 -70 1254 -70 
C 2048 -70 2611 518 2611 1325 
C 2611 1946 2182 2502 1466 2502 
C 1190 2502 954 2445 838 2400 
L 966 3469 
C 1203 3443 1408 3411 1715 3411 
C 1907 3411 2125 3424 2387 3450 
L 2490 3885 
L 2445 3910 
C 2080 3872 1734 3840 1395 3840 
C 1158 3840 928 3853 704 3872 
L 486 2029 
C 826 2157 1069 2182 1299 2182 
C 1715 2182 2042 1907 2042 1210 
z
" transform="scale(0.015625)"/>
       </defs>
       <use xlink:href="#LibertinusSerif-Regular-31" transform="translate(0 0.06875)"/>
       <use xlink:href="#LibertinusSerif-Regular-30" transform="translate(46.499985 0.06875)"/>
       <use xlink:href="#LibertinusSerif-Regular-35" transform="translate(93.75411 30.234375) scale(0.7)"/>
      </g>
     </g>
    </g>
    <g id="xtick_8">
     <g id="line2d_8">
      <defs>
       <path id="mef41ce89a7" d="M 0 0 
L 0 2 
" style="stroke: #000000; stroke-width: 0.6"/>
      </defs>
      <g>
       <use xlink:href="#mef41ce89a7" x="76.940469" y="307.584" style="stroke: #000000; stroke-width: 0.6"/>
      </g>
     </g>
    </g>
    <g id="xtick_9">
     <g id="line2d_9">
      <g>
       <use xlink:href="#mef41ce89a7" x="86.999966" y="307.584" style="stroke: #000000; stroke-width: 0.6"/>
      </g>
     </g>
    </g>
    <g id="xtick_10">
     <g id="line2d_10">
      <g>
       <use xlink:href="#mef41ce89a7" x="94.137293" y="307.584" style="stroke: #000000; stroke-width: 0.6"/>
      </g>
     </g>
    </g>
    <g id="xtick_11">
     <g id="line2d_11">
      <g>
       <use xlink:href="#mef41ce89a7" x="99.673433" y="307.584" style="stroke: #000000; stroke-width: 0.6"/>
      </g>
     </g>
    </g>
    <g id="xtick_12">
     <g id="line2d_12">
      <g>
       <use xlink:href="#mef41ce89a7" x="104.19679" y="307.584" style="stroke: #000000; stroke-width: 0.6"/>
      </g>
     </g>
    </g>
    <g id="xtick_13">
     <g id="line2d_13">
      <g>
       <use xlink:href="#mef41ce89a7" x="108.021233" y="307.584" style="stroke: #000000; stroke-width: 0.6"/>
      </g>
     </g>
    </g>
    <g id="xtick_14">
     <g id="line2d_14">
      <g>
       <use xlink:href="#mef41ce89a7" x="111.334116" y="307.584" style="stroke: #000000; stroke-width: 0.6"/>
      </g>
     </g>
    </g>
    <g id="xtick_15">
     <g id="line2d_15">
      <g>
       <use xlink:href="#mef41ce89a7" x="114.256287" y="307.584" style="stroke: #000000; stroke-width: 0.6"/>
      </g>
     </g>
    </g>
    <g id="xtick_16">
     <g id="line2d_16">
      <g>
       <use xlink:href="#mef41ce89a7" x="134.06708" y="307.584" style="stroke: #000000; stroke-width: 0.6"/>
      </g>
     </g>
    </g>
    <g id="xtick_17">
     <g id="line2d_17">
      <g>
       <use xlink:href="#mef41ce89a7" x="144.126577" y="307.584" style="stroke: #000000; stroke-width: 0.6"/>
      </g>
     </g>
    </g>
    <g id="xtick_18">
     <g id="line2d_18">
      <g>
       <use xlink:href="#mef41ce89a7" x="151.263904" y="307.584" style="stroke: #000000; stroke-width: 0.6"/>
      </g>
     </g>
    </g>
    <g id="xtick_19">
     <g id="line2d_19">
      <g>
       <use xlink:href="#mef41ce89a7" x="156.800045" y="307.584" style="stroke: #000000; stroke-width: 0.6"/>
      </g>
     </g>
    </g>
    <g id="xtick_20">
     <g id="line2d_20">
      <g>
       <use xlink:href="#mef41ce89a7" x="161.323401" y="307.584" style="stroke: #000000; stroke-width: 0.6"/>
      </g>
     </g>
    </g>
    <g id="xtick_21">
     <g id="line2d_21">
      <g>
       <use xlink:href="#mef41ce89a7" x="165.147844" y="307.584" style="stroke: #000000; stroke-width: 0.6"/>
      </g>
     </g>
    </g>
    <g id="xtick_22">
     <g id="line2d_22">
      <g>
       <use xlink:href="#mef41ce89a7" x="168.460728" y="307.584" style="stroke: #000000; stroke-width: 0.6"/>
      </g>
     </g>
    </g>
    <g id="xtick_23">
     <g id="line2d_23">
      <g>
       <use xlink:href="#mef41ce89a7" x="171.382898" y="307.584" style="stroke: #000000; stroke-width: 0.6"/>
      </g>
     </g>
    </g>
    <g id="xtick_24">
     <g id="line2d_24">
      <g>
       <use xlink:href="#mef41ce89a7" x="191.193692" y="307.584" style="stroke: #000000; stroke-width: 0.6"/>
      </g>
     </g>
    </g>
    <g id="xtick_25">
     <g id="line2d_25">
      <g>
       <use xlink:href="#mef41ce89a7" x="201.253189" y="307.584" style="stroke: #000000; stroke-width: 0.6"/>
      </g>
     </g>
    </g>
    <g id="xtick_26">
     <g id="line2d_26">
      <g>
       <use xlink:href="#mef41ce89a7" x="208.390515" y="307.584" style="stroke: #000000; stroke-width: 0.6"/>
      </g>
     </g>
    </g>
    <g id="xtick_27">
     <g id="line2d_27">
      <g>
       <use xlink:href="#mef41ce89a7" x="213.926656" y="307.584" style="stroke: #000000; stroke-width: 0.6"/>
      </g>
     </g>
    </g>
    <g id="xtick_28">
     <g id="line2d_28">
      <g>
       <use xlink:href="#mef41ce89a7" x="218.450012" y="307.584" style="stroke: #000000; stroke-width: 0.6"/>
      </g>
     </g>
    </g>
    <g id="xtick_29">
     <g id="line2d_29">
      <g>
       <use xlink:href="#mef41ce89a7" x="222.274455" y="307.584" style="stroke: #000000; stroke-width: 0.6"/>
      </g>
     </g>
    </g>
    <g id="xtick_30">
     <g id="line2d_30">
      <g>
       <use xlink:href="#mef41ce89a7" x="225.587339" y="307.584" style="stroke: #000000; stroke-width: 0.6"/>
      </g>
     </g>
    </g>
    <g id="xtick_31">
     <g id="line2d_31">
      <g>
       <use xlink:href="#mef41ce89a7" x="228.509509" y="307.584" style="stroke: #000000; stroke-width: 0.6"/>
      </g>
     </g>
    </g>
    <g id="xtick_32">
     <g id="line2d_32">
      <g>
       <use xlink:href="#mef41ce89a7" x="248.320303" y="307.584" style="stroke: #000000; stroke-width: 0.6"/>
      </g>
     </g>
    </g>
    <g id="xtick_33">
     <g id="line2d_33">
      <g>
       <use xlink:href="#mef41ce89a7" x="258.3798" y="307.584" style="stroke: #000000; stroke-width: 0.6"/>
      </g>
     </g>
    </g>
    <g id="xtick_34">
     <g id="line2d_34">
      <g>
       <use xlink:href="#mef41ce89a7" x="265.517127" y="307.584" style="stroke: #000000; stroke-width: 0.6"/>
      </g>
     </g>
    </g>
    <g id="xtick_35">
     <g id="line2d_35">
      <g>
       <use xlink:href="#mef41ce89a7" x="271.053267" y="307.584" style="stroke: #000000; stroke-width: 0.6"/>
      </g>
     </g>
    </g>
    <g id="xtick_36">
     <g id="line2d_36">
      <g>
       <use xlink:href="#mef41ce89a7" x="275.576624" y="307.584" style="stroke: #000000; stroke-width: 0.6"/>
      </g>
     </g>
    </g>
    <g id="xtick_37">
     <g id="line2d_37">
      <g>
       <use xlink:href="#mef41ce89a7" x="279.401067" y="307.584" style="stroke: #000000; stroke-width: 0.6"/>
      </g>
     </g>
    </g>
    <g id="xtick_38">
     <g id="line2d_38">
      <g>
       <use xlink:href="#mef41ce89a7" x="282.71395" y="307.584" style="stroke: #000000; stroke-width: 0.6"/>
      </g>
     </g>
    </g>
    <g id="xtick_39">
     <g id="line2d_39">
      <g>
       <use xlink:href="#mef41ce89a7" x="285.63612" y="307.584" style="stroke: #000000; stroke-width: 0.6"/>
      </g>
     </g>
    </g>
    <g id="xtick_40">
     <g id="line2d_40">
      <g>
       <use xlink:href="#mef41ce89a7" x="305.446914" y="307.584" style="stroke: #000000; stroke-width: 0.6"/>
      </g>
     </g>
    </g>
    <g id="xtick_41">
     <g id="line2d_41">
      <g>
       <use xlink:href="#mef41ce89a7" x="315.506411" y="307.584" style="stroke: #000000; stroke-width: 0.6"/>
      </g>
     </g>
    </g>
    <g id="xtick_42">
     <g id="line2d_42">
      <g>
       <use xlink:href="#mef41ce89a7" x="322.643738" y="307.584" style="stroke: #000000; stroke-width: 0.6"/>
      </g>
     </g>
    </g>
    <g id="xtick_43">
     <g id="line2d_43">
      <g>
       <use xlink:href="#mef41ce89a7" x="328.179879" y="307.584" style="stroke: #000000; stroke-width: 0.6"/>
      </g>
     </g>
    </g>
    <g id="xtick_44">
     <g id="line2d_44">
      <g>
       <use xlink:href="#mef41ce89a7" x="332.703235" y="307.584" style="stroke: #000000; stroke-width: 0.6"/>
      </g>
     </g>
    </g>
    <g id="xtick_45">
     <g id="line2d_45">
      <g>
       <use xlink:href="#mef41ce89a7" x="336.527678" y="307.584" style="stroke: #000000; stroke-width: 0.6"/>
      </g>
     </g>
    </g>
    <g id="xtick_46">
     <g id="line2d_46">
      <g>
       <use xlink:href="#mef41ce89a7" x="339.840561" y="307.584" style="stroke: #000000; stroke-width: 0.6"/>
      </g>
     </g>
    </g>
    <g id="xtick_47">
     <g id="line2d_47">
      <g>
       <use xlink:href="#mef41ce89a7" x="342.762732" y="307.584" style="stroke: #000000; stroke-width: 0.6"/>
      </g>
     </g>
    </g>
    <g id="xtick_48">
     <g id="line2d_48">
      <g>
       <use xlink:href="#mef41ce89a7" x="362.573526" y="307.584" style="stroke: #000000; stroke-width: 0.6"/>
      </g>
     </g>
    </g>
    <g id="xtick_49">
     <g id="line2d_49">
      <g>
       <use xlink:href="#mef41ce89a7" x="372.633023" y="307.584" style="stroke: #000000; stroke-width: 0.6"/>
      </g>
     </g>
    </g>
    <g id="xtick_50">
     <g id="line2d_50">
      <g>
       <use xlink:href="#mef41ce89a7" x="379.770349" y="307.584" style="stroke: #000000; stroke-width: 0.6"/>
      </g>
     </g>
    </g>
    <g id="xtick_51">
     <g id="line2d_51">
      <g>
       <use xlink:href="#mef41ce89a7" x="385.30649" y="307.584" style="stroke: #000000; stroke-width: 0.6"/>
      </g>
     </g>
    </g>
    <g id="xtick_52">
     <g id="line2d_52">
      <g>
       <use xlink:href="#mef41ce89a7" x="389.829846" y="307.584" style="stroke: #000000; stroke-width: 0.6"/>
      </g>
     </g>
    </g>
    <g id="xtick_53">
     <g id="line2d_53">
      <g>
       <use xlink:href="#mef41ce89a7" x="393.654289" y="307.584" style="stroke: #000000; stroke-width: 0.6"/>
      </g>
     </g>
    </g>
    <g id="xtick_54">
     <g id="line2d_54">
      <g>
       <use xlink:href="#mef41ce89a7" x="396.967173" y="307.584" style="stroke: #000000; stroke-width: 0.6"/>
      </g>
     </g>
    </g>
    <g id="xtick_55">
     <g id="line2d_55">
      <g>
       <use xlink:href="#mef41ce89a7" x="399.889343" y="307.584" style="stroke: #000000; stroke-width: 0.6"/>
      </g>
     </g>
    </g>
    <g id="text_8">
     <!-- Original runtime (µs) -->
     <g transform="translate(192.915469 334.984) scale(0.1 -0.1)">
      <defs>
       <path id="LibertinusSerif-Regular-4f" d="M 4262 2106 
C 4262 3430 3347 4211 2202 4211 
C 960 4211 237 3226 237 1984 
C 237 723 1152 -64 2240 -64 
C 2950 -64 3514 243 3866 742 
C 4122 1107 4262 1568 4262 2106 
z
M 2118 3981 
C 2963 3981 3648 3277 3648 1984 
C 3648 838 3098 166 2368 166 
C 1587 166 851 864 851 2093 
C 851 3437 1485 3981 2118 3981 
z
" transform="scale(0.015625)"/>
       <path id="LibertinusSerif-Regular-72" d="M 1126 2291 
C 1114 2547 1107 2714 1075 2778 
C 1062 2810 1050 2829 998 2829 
C 819 2758 653 2701 211 2643 
C 198 2605 211 2502 224 2464 
C 570 2432 640 2400 640 2029 
L 640 781 
C 640 250 563 224 166 198 
C 128 160 128 26 166 -13 
C 390 -6 640 0 896 0 
C 1152 0 1446 -6 1670 -13 
C 1709 26 1709 160 1670 198 
C 1222 230 1146 250 1146 781 
L 1146 1670 
C 1146 1837 1222 1984 1299 2099 
C 1370 2202 1517 2413 1594 2413 
C 1651 2413 1709 2400 1760 2330 
C 1805 2266 1882 2182 1990 2182 
C 2144 2182 2291 2342 2291 2502 
C 2291 2624 2176 2810 1907 2810 
C 1606 2810 1344 2528 1197 2278 
C 1158 2208 1126 2259 1126 2291 
z
" transform="scale(0.015625)"/>
       <path id="LibertinusSerif-Regular-69" d="M 1158 781 
L 1158 2054 
C 1158 2374 1184 2784 1184 2784 
C 1184 2810 1152 2829 1101 2829 
C 922 2758 666 2701 224 2643 
C 211 2605 224 2502 237 2464 
C 589 2432 653 2394 653 2029 
L 653 781 
C 653 250 582 230 192 198 
C 154 160 154 26 192 -13 
C 403 -6 653 0 909 0 
C 1165 0 1408 -6 1619 -13 
C 1658 26 1658 160 1619 198 
C 1229 224 1158 250 1158 781 
z
M 576 3834 
C 576 3667 730 3501 883 3501 
C 1062 3501 1216 3674 1216 3808 
C 1216 3962 1082 4141 909 4141 
C 755 4141 576 3987 576 3834 
z
" transform="scale(0.015625)"/>
       <path id="LibertinusSerif-Regular-67" d="M 2842 2477 
C 2963 2477 3078 2592 3078 2720 
C 3078 2854 2957 2957 2784 2957 
C 2618 2957 2310 2848 2144 2630 
C 2067 2682 1856 2810 1478 2810 
C 909 2810 384 2426 384 1837 
C 384 1491 538 1293 717 1120 
C 538 966 435 691 435 474 
C 435 243 563 64 730 -19 
C 384 -224 205 -518 205 -794 
C 205 -1350 730 -1523 1222 -1523 
C 2086 -1523 3021 -1107 3021 -416 
C 3021 -211 2925 -51 2739 102 
C 2490 307 2042 314 1805 314 
C 1690 314 1530 301 1376 282 
C 1280 275 1216 269 1184 269 
C 998 269 774 358 774 634 
C 774 762 813 896 890 1005 
C 1043 915 1222 870 1472 870 
C 2035 870 2554 1222 2554 1850 
C 2554 2150 2464 2323 2278 2515 
C 2323 2579 2451 2669 2534 2669 
C 2579 2669 2624 2650 2662 2592 
C 2688 2541 2771 2477 2842 2477 
z
M 845 -64 
C 915 -83 1018 -96 1101 -96 
C 1299 -96 1478 -77 1568 -77 
C 1888 -77 2157 -83 2342 -186 
C 2592 -326 2669 -416 2669 -582 
C 2669 -1043 1990 -1286 1414 -1286 
C 1184 -1286 646 -1101 646 -666 
C 646 -448 659 -288 845 -64 
z
M 2042 1786 
C 2042 1190 1741 1069 1504 1069 
C 966 1069 909 1523 909 1933 
C 909 2381 1069 2611 1421 2611 
C 1824 2611 2042 2317 2042 1786 
z
" transform="scale(0.015625)"/>
       <path id="LibertinusSerif-Regular-6e" d="M 1178 2291 
C 1139 2246 1101 2234 1101 2291 
C 1094 2464 1082 2714 1050 2778 
C 1037 2810 1024 2829 973 2829 
C 794 2758 627 2701 186 2643 
C 173 2605 186 2502 198 2464 
C 544 2432 614 2400 614 2029 
L 614 781 
C 614 256 550 230 166 198 
C 128 160 128 26 166 -13 
C 358 -6 614 0 870 0 
C 1126 0 1318 -6 1510 -13 
C 1549 26 1549 160 1510 198 
C 1184 230 1120 256 1120 781 
L 1120 1830 
C 1120 1965 1178 2042 1229 2099 
C 1472 2336 1760 2477 2010 2477 
C 2138 2477 2272 2394 2349 2246 
C 2413 2118 2426 1946 2426 1754 
L 2426 781 
C 2426 256 2362 230 2029 198 
C 1997 160 1997 26 2029 -13 
C 2221 -6 2426 0 2682 0 
C 2938 0 3168 -6 3360 -13 
C 3392 26 3392 160 3360 198 
C 3002 230 2931 256 2931 781 
L 2931 1734 
C 2931 2086 2906 2394 2758 2592 
C 2650 2733 2451 2810 2227 2810 
C 1914 2810 1555 2726 1178 2291 
z
" transform="scale(0.015625)"/>
       <path id="LibertinusSerif-Regular-61" d="M 1875 307 
C 1914 109 1984 -64 2304 -64 
C 2547 -64 2778 45 2912 173 
C 2899 250 2874 307 2803 346 
C 2758 307 2650 243 2566 243 
C 2381 243 2374 493 2374 787 
L 2374 1728 
C 2374 2637 1875 2810 1408 2810 
C 883 2810 352 2464 352 2099 
C 352 1946 429 1869 576 1869 
C 762 1869 877 2003 877 2086 
C 877 2131 870 2176 858 2202 
C 851 2221 845 2259 845 2330 
C 845 2528 1114 2598 1357 2598 
C 1574 2598 1875 2490 1875 1766 
C 1875 1722 1856 1696 1837 1690 
L 1286 1555 
C 672 1402 230 1062 230 627 
C 230 102 589 -64 1037 -64 
C 1261 -64 1453 -13 1734 205 
L 1862 307 
L 1875 307 
z
M 1875 1491 
L 1875 646 
C 1875 563 1837 518 1786 480 
C 1619 346 1402 198 1222 198 
C 902 198 762 454 762 653 
C 762 941 896 1235 1370 1357 
L 1875 1491 
z
" transform="scale(0.015625)"/>
       <path id="LibertinusSerif-Regular-6c" d="M 608 781 
C 608 250 538 218 147 198 
C 109 160 109 26 147 -13 
C 371 -6 608 0 864 0 
C 1120 0 1363 -6 1574 -13 
C 1613 26 1613 160 1574 198 
C 1184 218 1114 250 1114 781 
L 1114 3731 
C 1114 4147 1139 4403 1139 4403 
C 1139 4448 1114 4467 1056 4467 
C 896 4403 416 4314 160 4294 
C 147 4243 160 4141 198 4102 
C 570 4077 608 4058 608 3578 
L 608 781 
z
" transform="scale(0.015625)"/>
       <path id="LibertinusSerif-Regular-20" transform="scale(0.015625)"/>
       <path id="LibertinusSerif-Regular-75" d="M 1389 -64 
C 1638 -64 1939 64 2253 320 
C 2285 346 2342 358 2349 314 
C 2368 154 2419 -64 2419 -64 
C 2470 -83 2502 -77 2541 -64 
C 2682 51 2906 147 3296 192 
C 3334 230 3334 326 3296 365 
C 2886 397 2829 518 2829 832 
L 2829 2061 
C 2829 2253 2854 2720 2854 2720 
C 2854 2739 2835 2758 2803 2758 
C 2771 2752 2675 2746 2579 2746 
C 2374 2746 2144 2752 1926 2758 
C 1888 2720 1888 2586 1926 2547 
C 2240 2528 2323 2451 2323 2029 
L 2323 794 
C 2323 672 2310 621 2221 544 
C 1984 339 1741 237 1581 237 
C 1389 237 1069 326 1069 896 
L 1069 2061 
C 1069 2253 1094 2720 1094 2720 
C 1094 2739 1075 2758 1043 2758 
C 1011 2752 915 2746 819 2746 
C 614 2746 384 2752 166 2758 
C 128 2720 128 2586 166 2547 
C 474 2522 563 2451 563 2035 
L 563 806 
C 563 365 755 -64 1389 -64 
z
" transform="scale(0.015625)"/>
       <path id="LibertinusSerif-Regular-74" d="M 275 2746 
C 186 2746 160 2669 160 2618 
L 160 2534 
C 160 2502 166 2496 192 2496 
L 570 2496 
L 570 570 
C 570 115 768 -64 1062 -64 
C 1357 -64 1677 77 1926 358 
C 1914 422 1875 461 1811 467 
C 1645 339 1453 288 1286 288 
C 1114 288 1075 480 1075 877 
L 1075 2496 
L 1741 2496 
C 1805 2496 1894 2522 1894 2579 
L 1894 2707 
C 1894 2733 1875 2746 1843 2746 
L 1075 2746 
L 1075 2995 
C 1075 3411 1101 3667 1101 3667 
C 1101 3706 1082 3725 1050 3725 
C 1024 3725 966 3699 909 3667 
C 838 3629 774 3597 691 3578 
C 614 3552 550 3533 550 3488 
C 550 3411 570 3456 570 2746 
L 275 2746 
z
" transform="scale(0.015625)"/>
       <path id="LibertinusSerif-Regular-6d" d="M 1088 2291 
C 1082 2483 1069 2714 1037 2778 
C 1024 2810 1011 2829 960 2829 
C 781 2758 614 2701 173 2643 
C 160 2605 173 2502 186 2464 
C 531 2432 602 2400 602 2029 
L 602 781 
C 602 256 518 224 166 198 
C 128 160 128 26 166 -13 
C 358 -6 602 0 858 0 
C 1114 0 1312 -6 1504 -13 
C 1542 26 1542 160 1504 198 
C 1178 230 1107 256 1107 781 
L 1107 1830 
C 1107 1965 1165 2042 1216 2099 
C 1472 2349 1709 2477 1907 2477 
C 2150 2477 2330 2323 2330 1894 
L 2330 781 
C 2330 256 2278 224 1933 198 
C 1901 160 1901 26 1933 -13 
C 2093 -6 2330 0 2586 0 
C 2842 0 3053 -6 3213 -13 
C 3245 26 3245 160 3213 198 
C 2893 224 2835 256 2835 781 
L 2835 1798 
C 2835 1888 2835 1978 2829 2054 
C 3136 2394 3424 2477 3674 2477 
C 3917 2477 4058 2336 4058 1907 
L 4058 781 
C 4058 256 3994 224 3661 198 
C 3629 160 3629 26 3661 -13 
C 3821 -6 4058 0 4314 0 
C 4570 0 4794 -6 4973 -13 
C 5005 26 5005 160 4973 198 
C 4621 224 4563 256 4563 781 
L 4563 1792 
C 4563 2362 4467 2810 3904 2810 
C 3578 2810 3181 2688 2848 2336 
C 2829 2317 2790 2285 2778 2342 
C 2720 2605 2470 2810 2138 2810 
C 1766 2810 1434 2592 1165 2291 
C 1133 2259 1094 2214 1088 2291 
z
" transform="scale(0.015625)"/>
       <path id="LibertinusSerif-Regular-65" d="M 2470 595 
C 2234 352 2048 250 1677 250 
C 1446 250 1178 384 979 710 
C 851 922 774 1216 774 1587 
L 2477 1574 
C 2554 1574 2598 1613 2598 1683 
C 2598 2221 2406 2797 1517 2797 
C 960 2797 237 2266 237 1293 
C 237 934 326 589 538 346 
C 755 90 1056 -64 1517 -64 
C 2003 -64 2349 160 2605 493 
C 2586 557 2547 589 2470 595 
z
M 794 1805 
C 915 2528 1363 2586 1517 2586 
C 1760 2586 2048 2451 2048 1914 
C 2048 1856 2022 1824 1952 1824 
L 794 1805 
z
" transform="scale(0.015625)"/>
       <path id="LibertinusSerif-Regular-28" d="M 282 1613 
C 282 1325 307 -154 1638 -1306 
C 1702 -1293 1754 -1248 1773 -1197 
C 1562 -954 813 -70 813 1613 
C 813 3296 1568 4179 1773 4410 
C 1754 4474 1709 4518 1638 4525 
C 877 3872 282 2803 282 1613 
z
" transform="scale(0.015625)"/>
       <path id="LibertinusSerif-Regular-b5" d="M 2176 384 
L 2189 384 
C 2208 205 2310 -64 2701 -64 
C 3034 -64 3264 192 3264 224 
C 3264 269 3213 320 3187 320 
C 3149 320 3130 218 2963 218 
C 2701 218 2694 480 2694 774 
L 2694 2810 
C 2528 2790 2349 2746 2189 2746 
L 2189 685 
C 2042 474 1690 224 1338 224 
C 979 224 870 544 870 941 
L 870 2195 
C 870 2400 851 2810 851 2810 
C 659 2790 448 2746 294 2746 
C 294 2746 365 2240 365 2061 
L 365 858 
C 365 486 422 160 422 -51 
C 422 -454 320 -755 320 -1082 
C 320 -1344 576 -1498 685 -1498 
C 838 -1498 960 -1376 960 -1114 
C 960 -838 742 -390 742 26 
C 742 58 787 83 826 83 
C 902 0 1069 -64 1242 -64 
C 1651 -64 1926 102 2176 384 
z
" transform="scale(0.015625)"/>
       <path id="LibertinusSerif-Regular-73" d="M 307 883 
C 333 570 352 269 352 0 
C 416 13 480 19 512 19 
C 557 19 595 19 640 6 
C 813 -38 986 -64 1222 -64 
C 1581 -64 2240 109 2240 742 
C 2240 1178 1926 1434 1491 1594 
C 1107 1741 851 1837 851 2189 
C 851 2451 1082 2598 1299 2598 
C 1440 2598 1811 2547 1894 2003 
C 1933 1965 2061 1971 2099 2010 
C 2118 2240 2131 2477 2138 2688 
C 1939 2720 1632 2810 1299 2810 
C 826 2810 397 2502 397 2093 
C 397 1626 608 1427 1101 1222 
C 1632 1005 1754 870 1754 595 
C 1754 282 1446 147 1210 147 
C 960 147 819 230 755 301 
C 614 448 544 730 506 890 
C 467 928 346 922 307 883 
z
" transform="scale(0.015625)"/>
       <path id="LibertinusSerif-Regular-29" d="M 1626 1613 
C 1626 1901 1600 3379 269 4531 
C 205 4518 154 4474 134 4422 
C 346 4179 1094 3296 1094 1613 
C 1094 -70 339 -954 134 -1184 
C 154 -1248 198 -1293 269 -1299 
C 1030 -646 1626 422 1626 1613 
z
" transform="scale(0.015625)"/>
      </defs>
      <use xlink:href="#LibertinusSerif-Regular-4f"/>
      <use xlink:href="#LibertinusSerif-Regular-72" transform="translate(70.199982 0)"/>
      <use xlink:href="#LibertinusSerif-Regular-69" transform="translate(107.399979 0)"/>
      <use xlink:href="#LibertinusSerif-Regular-67" transform="translate(134.499969 0)"/>
      <use xlink:href="#LibertinusSerif-Regular-69" transform="translate(184.499954 0)"/>
      <use xlink:href="#LibertinusSerif-Regular-6e" transform="translate(211.599945 0)"/>
      <use xlink:href="#LibertinusSerif-Regular-61" transform="translate(265.799942 0)"/>
      <use xlink:href="#LibertinusSerif-Regular-6c" transform="translate(311.499939 0)"/>
      <use xlink:href="#LibertinusSerif-Regular-20" transform="translate(337.899933 0)"/>
      <use xlink:href="#LibertinusSerif-Regular-72" transform="translate(362.899918 0)"/>
      <use xlink:href="#LibertinusSerif-Regular-75" transform="translate(400.099915 0)"/>
      <use xlink:href="#LibertinusSerif-Regular-6e" transform="translate(453.199905 0)"/>
      <use xlink:href="#LibertinusSerif-Regular-74" transform="translate(507.399902 0)"/>
      <use xlink:href="#LibertinusSerif-Regular-69" transform="translate(538.999893 0)"/>
      <use xlink:href="#LibertinusSerif-Regular-6d" transform="translate(566.099884 0)"/>
      <use xlink:href="#LibertinusSerif-Regular-65" transform="translate(645.099869 0)"/>
      <use xlink:href="#LibertinusSerif-Regular-20" transform="translate(689.799866 0)"/>
      <use xlink:href="#LibertinusSerif-Regular-28" transform="translate(714.79985 0)"/>
      <use xlink:href="#LibertinusSerif-Regular-b5" transform="translate(744.599838 0)"/>
      <use xlink:href="#LibertinusSerif-Regular-73" transform="translate(796.099823 0)"/>
      <use xlink:href="#LibertinusSerif-Regular-29" transform="translate(835.099808 0)"/>
     </g>
    </g>
   </g>
   <g id="matplotlib.axis_2">
    <g id="ytick_1">
     <g id="line2d_56">
      <defs>
       <path id="m626b3ccd66" d="M 0 0 
L -3.5 0 
" style="stroke: #000000; stroke-width: 0.8"/>
      </defs>
      <g>
       <use xlink:href="#m626b3ccd66" x="57.6" y="307.584" style="stroke: #000000; stroke-width: 0.8"/>
      </g>
     </g>
     <g id="text_9">
      <!-- 0 -->
      <g transform="translate(45.95 311.073844) scale(0.1 -0.1)">
       <use xlink:href="#LibertinusSerif-Regular-30"/>
      </g>
     </g>
    </g>
    <g id="ytick_2">
     <g id="line2d_57">
      <g>
       <use xlink:href="#m626b3ccd66" x="57.6" y="268.622024" style="stroke: #000000; stroke-width: 0.8"/>
      </g>
     </g>
     <g id="text_10">
      <!-- 2 -->
      <g transform="translate(45.95 272.111868) scale(0.1 -0.1)">
       <use xlink:href="#LibertinusSerif-Regular-32"/>
      </g>
     </g>
    </g>
    <g id="ytick_3">
     <g id="line2d_58">
      <g>
       <use xlink:href="#m626b3ccd66" x="57.6" y="229.660048" style="stroke: #000000; stroke-width: 0.8"/>
      </g>
     </g>
     <g id="text_11">
      <!-- 4 -->
      <g transform="translate(45.95 233.149892) scale(0.1 -0.1)">
       <use xlink:href="#LibertinusSerif-Regular-34"/>
      </g>
     </g>
    </g>
    <g id="ytick_4">
     <g id="line2d_59">
      <g>
       <use xlink:href="#m626b3ccd66" x="57.6" y="190.698072" style="stroke: #000000; stroke-width: 0.8"/>
      </g>
     </g>
     <g id="text_12">
      <!-- 6 -->
      <g transform="translate(45.95 194.187916) scale(0.1 -0.1)">
       <defs>
        <path id="LibertinusSerif-Regular-36" d="M 922 2195 
C 1094 2778 1504 3424 2355 3744 
C 2355 3821 2330 3878 2278 3910 
C 1632 3718 1235 3450 877 3034 
C 480 2573 282 1990 282 1485 
C 282 186 1018 -70 1510 -70 
C 2349 -70 2694 742 2694 1293 
C 2694 1843 2400 2336 1530 2336 
C 1363 2336 1114 2285 922 2195 
z
M 864 1965 
C 1075 2106 1286 2112 1395 2112 
C 2022 2112 2163 1498 2163 1178 
C 2163 474 1894 154 1581 154 
C 1178 154 813 371 813 1466 
C 813 1613 826 1779 864 1965 
z
" transform="scale(0.015625)"/>
       </defs>
       <use xlink:href="#LibertinusSerif-Regular-36"/>
      </g>
     </g>
    </g>
    <g id="ytick_5">
     <g id="line2d_60">
      <g>
       <use xlink:href="#m626b3ccd66" x="57.6" y="151.736096" style="stroke: #000000; stroke-width: 0.8"/>
      </g>
     </g>
     <g id="text_13">
      <!-- 8 -->
      <g transform="translate(45.95 155.22594) scale(0.1 -0.1)">
       <defs>
        <path id="LibertinusSerif-Regular-38" d="M 2515 3104 
C 2515 3565 2157 3904 1530 3904 
C 877 3904 454 3514 454 3021 
C 454 2662 627 2400 1018 2157 
L 1184 2054 
C 998 1958 826 1843 666 1702 
C 403 1472 294 1184 294 934 
C 294 282 755 -64 1434 -64 
C 2272 -64 2682 550 2682 1037 
C 2682 1408 2522 1734 2182 1939 
L 1728 2214 
C 2029 2362 2515 2694 2515 3104 
z
M 1446 160 
C 1158 160 723 358 723 934 
C 723 1126 806 1574 1357 1939 
L 1658 1760 
C 2054 1517 2214 1216 2214 909 
C 2214 269 1734 160 1446 160 
z
M 1498 3680 
C 1914 3680 2067 3405 2067 3110 
C 2067 2765 1728 2477 1555 2349 
L 1357 2470 
C 954 2733 909 2944 909 3142 
C 909 3437 1114 3680 1498 3680 
z
" transform="scale(0.015625)"/>
       </defs>
       <use xlink:href="#LibertinusSerif-Regular-38"/>
      </g>
     </g>
    </g>
    <g id="ytick_6">
     <g id="line2d_61">
      <g>
       <use xlink:href="#m626b3ccd66" x="57.6" y="112.77412" style="stroke: #000000; stroke-width: 0.8"/>
      </g>
     </g>
     <g id="text_14">
      <!-- 10 -->
      <g transform="translate(41.3 116.263964) scale(0.1 -0.1)">
       <use xlink:href="#LibertinusSerif-Regular-31"/>
       <use xlink:href="#LibertinusSerif-Regular-30" transform="translate(46.499985 0)"/>
      </g>
     </g>
    </g>
    <g id="ytick_7">
     <g id="line2d_62">
      <g>
       <use xlink:href="#m626b3ccd66" x="57.6" y="73.812144" style="stroke: #000000; stroke-width: 0.8"/>
      </g>
     </g>
     <g id="text_15">
      <!-- 12 -->
      <g transform="translate(41.3 77.301988) scale(0.1 -0.1)">
       <use xlink:href="#LibertinusSerif-Regular-31"/>
       <use xlink:href="#LibertinusSerif-Regular-32" transform="translate(46.499985 0)"/>
      </g>
     </g>
    </g>
    <g id="text_16">
     <!-- Mean speedup (problems/s %) -->
     <g transform="translate(34.959375 235.124875) rotate(-90) scale(0.1 -0.1)">
      <defs>
       <path id="LibertinusSerif-Regular-4d" d="M 4243 742 
C 4275 224 4250 218 3834 198 
C 3795 160 3795 26 3834 -13 
C 4070 -6 4326 0 4518 0 
C 4710 0 5005 -6 5216 -13 
C 5254 26 5254 160 5216 198 
C 4781 218 4762 243 4723 774 
L 4531 3469 
C 4506 3814 4538 3904 4973 3930 
C 5011 3968 5011 4102 4973 4141 
L 4134 4128 
L 2778 883 
C 2752 819 2733 794 2720 794 
C 2707 794 2688 826 2669 877 
L 1357 4128 
L 429 4141 
C 390 4102 390 3968 429 3930 
C 870 3904 909 3891 864 3411 
L 608 774 
C 570 390 493 230 128 198 
C 90 160 90 26 128 -13 
C 320 -6 525 0 678 0 
C 832 0 1088 -6 1280 -13 
C 1318 26 1318 160 1280 198 
C 858 230 826 429 858 787 
L 1101 3354 
L 1114 3354 
L 2438 32 
C 2458 -13 2496 -64 2534 -64 
C 2573 -64 2598 -19 2624 32 
L 4064 3418 
L 4077 3418 
L 4243 742 
z
" transform="scale(0.015625)"/>
       <path id="LibertinusSerif-Regular-70" d="M 998 2355 
C 992 2547 979 2714 947 2778 
C 934 2810 922 2829 870 2829 
C 691 2758 525 2701 83 2643 
C 70 2605 83 2502 96 2464 
C 442 2432 512 2400 512 2029 
L 512 -704 
C 512 -1235 442 -1267 51 -1286 
C 13 -1325 13 -1459 51 -1498 
C 275 -1491 512 -1485 768 -1485 
C 1024 -1485 1331 -1491 1542 -1498 
C 1581 -1459 1581 -1325 1542 -1286 
C 1088 -1261 1018 -1235 1018 -704 
L 1018 -13 
C 1018 70 1043 64 1107 38 
C 1267 -26 1459 -64 1664 -64 
C 2022 -64 2342 45 2605 294 
C 2906 589 3078 986 3078 1504 
C 3078 2182 2598 2810 1946 2810 
C 1651 2810 1325 2618 1069 2330 
C 1030 2291 1005 2291 998 2355 
z
M 1120 2118 
C 1286 2323 1581 2515 1766 2515 
C 2176 2515 2528 2054 2528 1331 
C 2528 806 2342 154 1626 154 
C 1510 154 1286 186 1171 288 
C 1043 403 1018 442 1018 672 
L 1018 1837 
C 1018 1971 1043 2029 1120 2118 
z
" transform="scale(0.015625)"/>
       <path id="LibertinusSerif-Regular-64" d="M 2138 320 
C 2170 346 2227 358 2234 314 
C 2253 160 2304 -64 2304 -64 
C 2355 -83 2387 -77 2426 -64 
C 2566 51 2790 147 3181 192 
C 3219 230 3219 326 3181 365 
C 2771 397 2714 518 2714 832 
L 2714 3731 
C 2714 4147 2739 4403 2739 4403 
C 2739 4448 2714 4467 2656 4467 
C 2496 4403 2016 4314 1760 4294 
C 1747 4243 1760 4141 1798 4102 
C 1818 4102 1837 4102 1856 4102 
C 2138 4083 2208 4083 2208 3578 
L 2208 2758 
C 2208 2714 2195 2701 2150 2701 
C 2125 2701 1862 2810 1651 2810 
C 1229 2810 947 2669 691 2426 
C 416 2150 250 1773 250 1299 
C 250 512 646 -64 1338 -64 
C 1587 -64 1824 64 2138 320 
z
M 2208 794 
C 2208 672 2195 621 2106 544 
C 1869 339 1664 237 1504 237 
C 1158 237 800 614 800 1414 
C 800 1875 890 2131 986 2266 
C 1184 2566 1453 2586 1581 2586 
C 1811 2586 1971 2502 2099 2355 
C 2189 2253 2208 2208 2208 2010 
L 2208 794 
z
" transform="scale(0.015625)"/>
       <path id="LibertinusSerif-Regular-6f" d="M 262 1312 
C 262 659 698 -64 1606 -64 
C 2016 -64 2330 83 2547 294 
C 2835 576 2963 979 2963 1370 
C 2963 2035 2598 2810 1619 2810 
C 1197 2810 851 2637 614 2362 
C 384 2086 262 1715 262 1312 
z
M 1523 2586 
C 2074 2586 2413 2086 2413 1165 
C 2413 358 1997 160 1696 160 
C 1030 160 813 966 813 1459 
C 813 2016 947 2586 1523 2586 
z
" transform="scale(0.015625)"/>
       <path id="LibertinusSerif-Regular-62" d="M 1069 2522 
C 1030 2483 1005 2496 1005 2554 
L 1005 3731 
C 1005 4147 1030 4403 1030 4403 
C 1030 4448 1005 4467 947 4467 
C 787 4403 307 4314 51 4294 
C 38 4243 51 4141 90 4102 
C 109 4102 128 4102 147 4102 
C 429 4083 499 4083 499 3578 
L 499 454 
C 499 205 493 90 474 0 
C 506 -51 538 -77 614 -77 
C 653 -38 717 19 768 77 
C 832 154 870 154 941 96 
C 1088 -26 1280 -64 1504 -64 
C 2157 -64 2918 531 2918 1549 
C 2918 2330 2342 2810 1786 2810 
C 1510 2810 1267 2701 1069 2522 
z
M 1114 2323 
C 1280 2470 1472 2528 1658 2528 
C 2048 2528 2368 2054 2368 1434 
C 2368 704 2074 154 1466 154 
C 1267 154 1133 294 1005 454 
L 1005 2054 
C 1005 2189 1030 2253 1114 2323 
z
" transform="scale(0.015625)"/>
       <path id="LibertinusSerif-Regular-2f" d="M 1875 4134 
L 1613 4134 
L 96 -378 
L 358 -378 
L 1875 4134 
z
" transform="scale(0.015625)"/>
       <path id="LibertinusSerif-Regular-25" d="M 2330 3334 
C 2214 3334 1990 3334 1645 3494 
C 1581 3571 1395 3654 1216 3654 
C 755 3654 365 3200 365 2637 
C 365 2310 557 1939 954 1939 
C 1491 1939 1773 2662 1773 3072 
C 1773 3130 1766 3187 1754 3232 
C 1875 3162 2118 3098 2266 3098 
C 2458 3098 2707 3123 2950 3219 
L 653 19 
L 870 -77 
L 3494 3578 
L 3290 3680 
C 3091 3411 2598 3334 2330 3334 
z
M 2419 627 
C 2419 288 2624 -77 3014 -77 
C 3546 -77 3827 627 3827 1056 
C 3827 1523 3533 1638 3277 1638 
C 2803 1638 2419 1152 2419 627 
z
M 710 2547 
C 710 2918 973 3456 1286 3456 
C 1402 3456 1562 3386 1562 3066 
C 1562 2694 1344 2138 992 2138 
C 877 2138 710 2214 710 2547 
z
M 2771 531 
C 2771 902 3034 1440 3347 1440 
C 3437 1440 3616 1382 3616 1050 
C 3616 691 3405 122 3053 122 
C 2931 122 2771 198 2771 531 
z
" transform="scale(0.015625)"/>
      </defs>
      <use xlink:href="#LibertinusSerif-Regular-4d"/>
      <use xlink:href="#LibertinusSerif-Regular-65" transform="translate(83.899994 0)"/>
      <use xlink:href="#LibertinusSerif-Regular-61" transform="translate(128.599991 0)"/>
      <use xlink:href="#LibertinusSerif-Regular-6e" transform="translate(174.299988 0)"/>
      <use xlink:href="#LibertinusSerif-Regular-20" transform="translate(228.499985 0)"/>
      <use xlink:href="#LibertinusSerif-Regular-73" transform="translate(253.499969 0)"/>
      <use xlink:href="#LibertinusSerif-Regular-70" transform="translate(292.499954 0)"/>
      <use xlink:href="#LibertinusSerif-Regular-65" transform="translate(344.399948 0)"/>
      <use xlink:href="#LibertinusSerif-Regular-65" transform="translate(389.099945 0)"/>
      <use xlink:href="#LibertinusSerif-Regular-64" transform="translate(433.799942 0)"/>
      <use xlink:href="#LibertinusSerif-Regular-75" transform="translate(484.399933 0)"/>
      <use xlink:href="#LibertinusSerif-Regular-70" transform="translate(537.499924 0)"/>
      <use xlink:href="#LibertinusSerif-Regular-20" transform="translate(589.399918 0)"/>
      <use xlink:href="#LibertinusSerif-Regular-28" transform="translate(614.399902 0)"/>
      <use xlink:href="#LibertinusSerif-Regular-70" transform="translate(644.19989 0)"/>
      <use xlink:href="#LibertinusSerif-Regular-72" transform="translate(696.099884 0)"/>
      <use xlink:href="#LibertinusSerif-Regular-6f" transform="translate(733.299881 0)"/>
      <use xlink:href="#LibertinusSerif-Regular-62" transform="translate(783.699875 0)"/>
      <use xlink:href="#LibertinusSerif-Regular-6c" transform="translate(832.999863 0)"/>
      <use xlink:href="#LibertinusSerif-Regular-65" transform="translate(859.399857 0)"/>
      <use xlink:href="#LibertinusSerif-Regular-6d" transform="translate(904.099854 0)"/>
      <use xlink:href="#LibertinusSerif-Regular-73" transform="translate(983.099838 0)"/>
      <use xlink:href="#LibertinusSerif-Regular-2f" transform="translate(1022.099823 0)"/>
      <use xlink:href="#LibertinusSerif-Regular-73" transform="translate(1054.399811 0)"/>
      <use xlink:href="#LibertinusSerif-Regular-20" transform="translate(1093.399796 0)"/>
      <use xlink:href="#LibertinusSerif-Regular-25" transform="translate(1118.39978 0)"/>
      <use xlink:href="#LibertinusSerif-Regular-29" transform="translate(1182.099777 0)"/>
     </g>
    </g>
   </g>
   <g id="LineCollection_1">
    <path d="M 73.832727 288.103012 
L 398.487273 288.103012 
" clip-path="url(#p60bd7aae7b)" style="fill: none; stroke-dasharray: 5.55,2.4; stroke-dashoffset: 0; stroke: #ffffff; stroke-width: 1.5"/>
   </g>
   <g id="patch_63">
    <path d="M 57.6 307.584 
L 57.6 41.472 
" style="fill: none; stroke: #000000; stroke-width: 0.8; stroke-linejoin: miter; stroke-linecap: square"/>
   </g>
   <g id="patch_64">
    <path d="M 414.72 307.584 
L 414.72 41.472 
" style="fill: none; stroke: #000000; stroke-width: 0.8; stroke-linejoin: miter; stroke-linecap: square"/>
   </g>
   <g id="patch_65">
    <path d="M 57.6 307.584 
L 414.72 307.584 
" style="fill: none; stroke: #000000; stroke-width: 0.8; stroke-linejoin: miter; stroke-linecap: square"/>
   </g>
   <g id="patch_66">
    <path d="M 57.6 41.472 
L 414.72 41.472 
" style="fill: none; stroke: #000000; stroke-width: 0.8; stroke-linejoin: miter; stroke-linecap: square"/>
   </g>
   <g id="legend_1">
    <g id="patch_67">
     <path d="M 64.6 78.15325 
L 140.2625 78.15325 
Q 142.2625 78.15325 142.2625 76.15325 
L 142.2625 48.472 
Q 142.2625 46.472 140.2625 46.472 
L 64.6 46.472 
Q 62.6 46.472 62.6 48.472 
L 62.6 76.15325 
Q 62.6 78.15325 64.6 78.15325 
z
" style="fill: #ffffff; opacity: 0.8; stroke: #cccccc; stroke-linejoin: miter"/>
    </g>
    <g id="patch_68">
     <path d="M 66.6 57.472 
L 86.6 57.472 
L 86.6 50.472 
L 66.6 50.472 
z
" style="fill: #0000ff; opacity: 0.7; stroke: #000000; stroke-linejoin: miter"/>
    </g>
    <g id="text_17">
     <!-- z3 -->
     <g transform="translate(94.6 57.472) scale(0.1 -0.1)">
      <defs>
       <path id="LibertinusSerif-Regular-7a" d="M 454 2810 
C 442 2810 416 2784 416 2771 
C 410 2483 378 2259 320 1946 
C 378 1920 454 1907 531 1926 
C 659 2394 858 2502 1050 2509 
L 1869 2528 
C 1434 1798 794 877 294 205 
C 237 128 237 109 237 77 
C 237 32 288 0 384 0 
L 2381 -19 
C 2458 198 2541 531 2586 851 
C 2547 877 2470 890 2394 890 
L 2304 704 
C 2144 365 2010 224 1677 218 
L 826 218 
C 1299 819 1965 1824 2362 2477 
C 2458 2637 2477 2688 2477 2714 
C 2477 2739 2445 2758 2400 2758 
C 2368 2758 2189 2746 2003 2746 
L 832 2746 
C 627 2746 550 2778 454 2810 
z
" transform="scale(0.015625)"/>
      </defs>
      <use xlink:href="#LibertinusSerif-Regular-7a"/>
      <use xlink:href="#LibertinusSerif-Regular-33" transform="translate(42.399994 0)"/>
     </g>
    </g>
    <g id="patch_69">
     <path d="M 66.6 71.812625 
L 86.6 71.812625 
L 86.6 64.812625 
L 66.6 64.812625 
z
" style="fill: #ff0000; opacity: 0.7; stroke: #000000; stroke-linejoin: miter"/>
    </g>
    <g id="text_18">
     <!-- z3-noodler -->
     <g transform="translate(94.6 71.812625) scale(0.1 -0.1)">
      <defs>
       <path id="LibertinusSerif-Regular-2d" d="M 1734 1427 
C 1818 1427 1907 1606 1907 1683 
C 1907 1747 1882 1811 1818 1811 
L 416 1811 
C 339 1811 256 1664 256 1549 
C 256 1485 294 1427 352 1427 
L 1734 1427 
z
" transform="scale(0.015625)"/>
      </defs>
      <use xlink:href="#LibertinusSerif-Regular-7a"/>
      <use xlink:href="#LibertinusSerif-Regular-33" transform="translate(42.399994 0)"/>
      <use xlink:href="#LibertinusSerif-Regular-2d" transform="translate(88.899979 0)"/>
      <use xlink:href="#LibertinusSerif-Regular-6e" transform="translate(122.699966 0)"/>
      <use xlink:href="#LibertinusSerif-Regular-6f" transform="translate(176.899963 0)"/>
      <use xlink:href="#LibertinusSerif-Regular-6f" transform="translate(227.299957 0)"/>
      <use xlink:href="#LibertinusSerif-Regular-64" transform="translate(277.699951 0)"/>
      <use xlink:href="#LibertinusSerif-Regular-6c" transform="translate(328.299942 0)"/>
      <use xlink:href="#LibertinusSerif-Regular-65" transform="translate(354.699936 0)"/>
      <use xlink:href="#LibertinusSerif-Regular-72" transform="translate(399.399933 0)"/>
     </g>
    </g>
   </g>
  </g>
 </g>
 <defs>
  <clipPath id="p60bd7aae7b">
   <rect x="57.6" y="41.472" width="357.12" height="266.112"/>
  </clipPath>
 </defs>
</svg>
